<?xml version="1.0" standalone="no"?>
<!DOCTYPE svg PUBLIC "-//W3C//DTD SVG 20010904//EN"
 "http://www.w3.org/TR/2001/REC-SVG-20010904/DTD/svg10.dtd">
<svg version="1.0" xmlns="http://www.w3.org/2000/svg"
 width="763.000000pt" height="1080.000000pt" viewBox="0 0 763.000000 1080.000000"
 preserveAspectRatio="xMidYMid meet">

<g transform="translate(0.000000,1080.000000) scale(0.100000,-0.100000)"
fill="#000000" stroke="none">
<path d="M0 5400 l0 -5400 3815 0 3815 0 0 5400 0 5400 -3815 0 -3815 0 0
-5400z m4310 3461 c180 -27 234 -37 370 -71 417 -102 836 -293 1175 -534 223
-159 545 -464 719 -681 326 -408 567 -920 671 -1424 35 -170 53 -302 71 -526
15 -171 15 -226 5 -378 -24 -359 -73 -615 -180 -936 -215 -643 -637 -1235
-1167 -1638 -410 -311 -785 -495 -1259 -618 -304 -78 -600 -110 -949 -102
-516 12 -938 113 -1426 344 -578 272 -1121 772 -1459 1341 -329 554 -491 1143
-491 1787 0 314 31 552 116 890 94 371 289 786 527 1120 150 210 391 471 589
638 391 330 875 580 1367 707 134 35 438 87 578 100 171 15 589 5 743 -19z"/>
<path d="M3560 8714 c-194 -18 -446 -66 -635 -121 -1132 -329 -1996 -1238
-2268 -2384 -120 -502 -116 -1057 9 -1554 209 -826 725 -1529 1464 -1994 125
-79 402 -218 545 -274 244 -96 565 -175 822 -202 184 -20 550 -19 723 0 613
71 1181 307 1667 693 126 100 379 350 479 472 398 487 639 1053 720 1690 24
183 24 562 0 755 -91 755 -400 1410 -916 1939 -520 533 -1136 844 -1910 963
-92 14 -597 26 -700 17z m340 -119 c0 -15 -7 -28 -16 -32 -15 -5 -16 -22 -10
-147 4 -78 9 -160 12 -182 l6 -42 -40 -4 -41 -3 -68 98 c-131 189 -128 185
-132 157 -1 -14 0 -66 4 -117 6 -82 9 -93 26 -93 14 0 19 -7 19 -30 l0 -30
-68 0 c-37 0 -99 -7 -137 -15 -97 -20 -105 -20 -105 10 0 16 6 25 15 25 18 0
19 20 2 43 -11 16 -18 17 -80 3 -38 -7 -70 -16 -72 -18 -2 -2 -6 -16 -9 -31
-4 -24 -2 -27 14 -22 15 5 21 0 26 -20 3 -14 5 -27 3 -29 -9 -8 -138 -33 -143
-28 -11 11 -6 45 9 56 11 8 21 57 35 161 24 184 24 175 1 175 -20 0 -37 29
-24 40 10 9 95 30 121 30 15 0 45 -41 118 -165 l99 -164 38 -1 37 0 0 63 c0
34 -3 106 -7 160 -5 85 -8 97 -25 97 -13 0 -18 7 -18 30 0 30 0 30 58 30 l58
0 94 -137 c107 -155 107 -155 95 4 -6 84 -9 92 -28 95 -14 2 -23 11 -25 25 -3
19 2 22 45 26 116 9 113 9 113 -18z m328 -1 c68 -7 70 -11 56 -83 -6 -26 -11
-31 -35 -31 -24 0 -29 4 -29 25 0 21 -5 25 -29 25 -34 0 -36 -7 -49 -192 -7
-106 -7 -107 15 -113 16 -4 23 -13 23 -30 0 -28 -11 -30 -119 -19 -56 6 -61 9
-61 30 0 17 6 24 19 24 10 0 23 6 28 13 9 11 38 285 31 292 -2 2 -15 6 -30 10
-23 6 -28 3 -34 -19 -5 -20 -12 -26 -35 -26 -29 0 -29 1 -29 57 l0 56 108 -6
c59 -4 135 -10 170 -13z m282 -49 c68 -14 125 -27 126 -28 2 -1 -2 -24 -8 -50
-9 -46 -11 -48 -41 -45 -26 2 -31 7 -29 25 3 18 -4 23 -49 32 -40 9 -54 9 -60
0 -8 -14 -21 -90 -16 -95 2 -2 32 -10 68 -17 51 -10 65 -17 67 -32 5 -41 -9
-47 -84 -31 -38 8 -69 14 -70 13 -9 -20 -22 -113 -17 -118 5 -4 31 -10 59 -14
46 -6 52 -5 57 14 5 21 32 27 55 13 9 -6 11 -21 6 -49 -11 -68 -7 -67 -160
-37 -76 15 -143 30 -147 34 -15 13 3 49 25 52 19 3 24 19 49 138 33 159 34
170 14 170 -8 0 -15 6 -15 14 0 28 11 44 28 40 9 -2 73 -15 142 -29z m-1505
-136 c5 -20 1 -26 -25 -36 -16 -6 -30 -8 -30 -5 0 4 -4 13 -9 20 -7 12 -18 11
-65 -4 -31 -10 -56 -23 -56 -31 0 -17 31 -93 38 -93 3 0 36 10 74 22 37 12 70
20 72 17 2 -2 7 -16 11 -30 6 -25 3 -27 -62 -50 -76 -27 -81 -38 -49 -112 14
-34 17 -36 41 -27 23 9 27 7 36 -17 5 -14 8 -26 7 -27 -2 -1 -39 -14 -82 -29
-62 -21 -81 -25 -88 -15 -12 19 -10 34 6 47 15 12 7 40 -74 268 -7 20 -19 33
-33 35 -14 2 -23 11 -25 24 -3 19 13 27 140 72 l143 50 12 -28 c7 -15 15 -38
18 -51z m1863 45 c27 -9 62 -26 78 -39 l28 -22 -18 -46 c-16 -42 -19 -44 -44
-38 -23 7 -27 13 -24 38 2 23 -2 32 -23 41 -52 24 -105 6 -105 -37 0 -22 14
-38 73 -85 55 -44 69 -66 69 -111 0 -114 -112 -158 -240 -94 -66 33 -69 38
-50 101 10 33 15 38 32 34 12 -3 26 -6 31 -6 6 0 9 -14 7 -33 -3 -28 0 -35 23
-45 94 -43 158 35 78 95 -77 58 -103 92 -103 134 0 53 24 97 63 114 42 19 65
18 125 -1z m-2237 -116 c9 -16 9 -23 0 -26 -22 -7 -10 -40 70 -195 l80 -157
-34 -16 -34 -16 -135 80 c-73 45 -141 84 -150 87 -10 4 3 -29 36 -95 45 -89
54 -101 74 -97 24 5 51 -28 35 -44 -9 -9 -120 -69 -127 -69 -3 0 -10 9 -16 21
-9 17 -8 23 6 33 16 12 11 24 -52 147 -54 104 -75 135 -92 137 -12 2 -27 12
-32 23 -9 16 -5 22 22 39 61 37 70 36 170 -25 163 -101 188 -115 188 -104 0 8
-73 153 -96 190 -3 5 -12 5 -23 -1 -15 -7 -20 -4 -29 15 -11 23 -8 26 51 58
76 42 74 42 88 15z m2647 -60 c111 -60 148 -92 167 -143 27 -70 0 -160 -69
-233 -44 -47 -77 -62 -137 -62 -43 0 -68 9 -150 52 -55 28 -99 56 -99 62 0 21
17 37 36 34 26 -4 171 256 154 277 -13 15 -5 55 11 55 6 0 45 -19 87 -42z
m-3066 -199 c-12 -19 -6 -33 73 -151 64 -96 90 -127 98 -119 16 16 23 14 35
-13 10 -23 7 -27 -51 -65 -55 -36 -64 -39 -77 -26 -12 13 -12 19 -2 36 12 19
6 33 -72 149 -70 105 -89 127 -105 123 -13 -3 -23 2 -30 16 -11 19 -6 25 51
61 56 36 63 39 77 25 13 -13 14 -19 3 -36z m3517 -79 c49 -36 90 -68 90 -73 1
-4 -12 -25 -27 -46 -27 -37 -29 -38 -55 -24 -28 14 -34 27 -17 38 17 11 11 21
-34 53 l-43 31 -32 -39 c-17 -21 -31 -43 -31 -47 0 -5 12 -16 28 -25 15 -10
40 -28 56 -41 28 -23 29 -24 11 -50 l-17 -27 -62 45 -62 44 -33 -50 c-19 -27
-32 -51 -30 -52 75 -59 102 -69 113 -42 5 14 8 14 31 -1 14 -9 25 -20 25 -25
0 -20 -56 -88 -69 -84 -23 9 -223 159 -228 172 -3 7 0 20 7 28 10 12 16 13 27
4 17 -15 10 -22 118 124 69 94 84 121 75 132 -8 10 -9 19 0 35 13 25 11 26
159 -80z m-1621 35 c326 -34 593 -111 888 -255 414 -203 792 -545 1042 -941
374 -594 491 -1321 321 -2000 -113 -456 -330 -845 -659 -1183 -338 -347 -752
-589 -1207 -705 -228 -58 -384 -76 -658 -75 -196 0 -265 5 -375 22 -268 44
-500 117 -736 231 -1064 517 -1639 1668 -1414 2831 192 996 979 1805 1970
2024 290 64 550 80 828 51z m-2176 -162 c33 -32 35 -44 8 -68 -19 -17 -21 -17
-38 -2 -26 24 -37 21 -66 -14 -31 -37 -33 -60 -5 -85 20 -18 22 -18 101 10 93
33 131 30 172 -13 73 -76 28 -188 -103 -255 l-33 -18 -34 33 c-39 38 -41 49
-14 74 19 17 21 17 38 2 26 -24 44 -21 75 11 34 35 35 76 4 97 -25 16 -57 11
-115 -19 -74 -38 -160 -5 -181 71 -11 39 4 89 37 127 20 22 101 76 116 76 5 0
23 -12 38 -27z m4129 -154 l30 -38 -66 -131 c-37 -73 -64 -134 -62 -136 2 -3
67 21 143 52 l138 56 43 -48 c32 -37 39 -52 31 -62 -7 -8 -21 -11 -36 -7 -22
5 -40 -8 -133 -101 -84 -84 -106 -111 -99 -123 26 -44 20 -44 182 -2 86 23
158 41 160 41 3 0 3 11 0 25 -3 17 1 27 13 32 20 7 49 -23 81 -83 l18 -33
-117 -154 c-113 -150 -116 -156 -106 -186 6 -17 17 -31 25 -31 8 0 61 22 117
48 56 27 116 54 133 62 21 9 30 19 26 28 -5 13 22 42 39 42 3 0 28 -48 54
-107 59 -132 62 -174 16 -215 -42 -38 -76 -45 -128 -26 -31 11 -43 12 -43 4 0
-7 -20 -36 -45 -64 -27 -32 -42 -59 -38 -68 3 -8 -3 -22 -13 -30 -11 -9 -13
-12 -6 -9 7 4 21 0 31 -9 17 -15 28 -13 157 33 114 40 140 52 142 69 3 19 37
40 47 30 3 -2 16 -34 30 -71 l25 -68 -22 -8 c-17 -7 -26 -5 -36 7 -11 15 -26
12 -157 -33 -129 -44 -145 -52 -145 -72 0 -13 -4 -23 -9 -23 -5 0 -16 -2 -24
-5 -10 -5 -21 15 -41 72 -15 43 -41 109 -57 147 -23 54 -27 71 -17 78 18 11
36 10 43 -3 8 -12 36 11 67 54 20 28 20 30 3 67 l-18 39 -49 -25 c-39 -20 -48
-29 -43 -44 5 -17 -18 -40 -40 -40 -3 0 -21 33 -39 74 -19 41 -52 101 -75 135
-23 33 -41 62 -41 65 0 3 9 10 21 16 15 9 24 8 35 -1 12 -10 19 -9 34 7 20 19
20 20 -16 74 -49 73 -47 72 -77 65 -22 -6 -25 -10 -17 -25 7 -13 4 -20 -16
-31 -17 -9 -28 -10 -32 -3 -4 6 -22 35 -41 65 -19 30 -54 75 -78 100 -43 45
-43 45 -24 64 17 14 23 15 36 5 15 -13 35 4 145 123 l34 37 -64 -26 c-36 -14
-93 -36 -127 -49 l-61 -23 -22 23 -21 23 61 122 62 123 -84 -68 c-45 -37 -87
-71 -91 -75 -5 -5 -4 -17 2 -28 8 -15 7 -23 -7 -36 -17 -14 -22 -12 -72 39
-46 47 -52 56 -40 70 9 10 22 14 39 10 22 -4 44 10 136 85 83 68 110 96 110
114 0 12 6 30 14 40 16 19 26 13 72 -45z m-4342 -129 c56 -28 100 -68 133
-119 53 -84 30 -190 -54 -251 -76 -56 -178 -36 -267 52 -52 51 -71 92 -71 153
0 69 42 138 105 173 32 18 112 14 154 -8z m-329 -306 c22 -15 40 -28 40 -30 0
-10 -24 -54 -30 -54 -3 0 -15 7 -26 15 -28 21 -36 19 -61 -18 -44 -64 -24
-135 53 -188 86 -59 162 -59 202 -1 36 51 32 80 -10 94 -10 4 -10 10 1 31 18
33 22 33 71 1 47 -31 50 -54 20 -115 -31 -59 -92 -116 -140 -129 -55 -15 -128
7 -195 58 -91 69 -117 157 -75 251 20 43 82 111 101 111 5 0 27 -12 49 -26z
m-240 -304 c8 -5 15 -19 15 -30 0 -17 27 -36 134 -92 117 -62 135 -69 143 -54
7 13 13 14 31 5 12 -7 23 -13 25 -14 4 -4 -42 -94 -60 -118 -18 -24 -46 -13
-50 20 -3 22 -24 36 -137 96 -117 61 -135 68 -143 53 -7 -13 -13 -14 -31 -5
-12 7 -23 13 -25 14 -5 4 69 135 76 135 4 0 14 -5 22 -10z m-38 -261 c-4 -33
-17 -43 -41 -30 -18 10 -23 8 -41 -21 -25 -42 -25 -63 1 -89 28 -28 55 -18
109 43 52 60 95 81 137 69 105 -30 131 -112 73 -228 -42 -83 -47 -87 -104 -66
-50 19 -51 20 -36 57 8 22 13 24 34 16 19 -7 28 -5 41 10 25 28 31 93 10 113
-29 29 -56 20 -110 -37 -27 -29 -60 -58 -72 -65 -55 -28 -133 4 -159 66 -23
54 0 133 59 200 19 21 19 21 60 3 34 -14 41 -22 39 -41z m-183 -258 c7 -5 11
-13 7 -19 -10 -17 16 -29 139 -61 66 -17 131 -39 145 -49 65 -49 59 -184 -11
-254 -47 -48 -65 -48 -232 -3 -106 28 -129 31 -134 19 -5 -14 -53 -20 -53 -6
0 4 7 40 17 80 12 54 20 71 31 67 7 -3 18 -5 23 -5 5 0 9 -9 9 -20 0 -12 10
-25 23 -30 37 -16 215 -60 242 -60 30 0 65 50 65 91 0 47 -28 66 -144 99 -123
34 -142 36 -149 16 -4 -9 -15 -12 -32 -8 -21 4 -26 9 -21 26 3 11 11 45 17 74
12 53 26 63 58 43z m5959 -146 l11 -50 -122 -124 c-67 -67 -113 -121 -102
-118 11 3 45 11 75 17 124 27 130 29 130 54 0 17 7 25 25 28 22 5 26 1 35 -31
5 -20 12 -54 16 -77 5 -36 4 -42 -15 -47 -13 -3 -24 1 -30 11 -10 18 -41 14
-211 -28 -41 -10 -94 -21 -116 -25 -40 -6 -42 -5 -53 26 l-11 33 127 129 c71
72 119 127 108 123 -11 -4 -64 -17 -117 -28 -88 -19 -98 -24 -98 -44 0 -14 -8
-24 -22 -27 -12 -4 -24 -5 -26 -3 -5 6 -31 119 -32 139 0 22 38 23 54 1 10
-14 25 -12 141 15 72 17 140 33 152 36 15 3 20 10 16 24 -4 14 1 20 19 23 31
5 34 1 46 -57z m-6068 -325 c0 -24 20 -27 193 -34 122 -5 127 -4 127 15 0 16
6 20 28 17 15 -2 26 -6 25 -10 -2 -5 -3 -34 -3 -65 0 -32 -4 -64 -9 -72 -11
-17 -47 -6 -54 18 -4 15 -20 19 -112 25 -59 4 -110 5 -112 2 -3 -3 47 -31 111
-63 111 -55 116 -59 116 -89 l0 -31 -117 -33 c-65 -18 -124 -36 -131 -40 -7
-3 31 -12 85 -19 54 -7 106 -15 116 -17 13 -4 20 1 24 15 3 14 13 21 29 21 27
0 30 -17 18 -104 -6 -40 -10 -46 -30 -46 -15 0 -24 6 -24 15 0 22 -28 30 -165
49 -66 9 -128 19 -137 22 -13 4 -18 0 -18 -16 0 -17 -5 -21 -27 -18 -27 3 -28
5 -25 53 5 80 3 78 124 109 62 16 129 35 148 42 l35 12 -137 66 -138 67 0 42
c0 66 9 87 36 87 17 0 24 -6 24 -20z m5780 -115 c0 -8 17 -19 43 -25 23 -6 90
-24 149 -41 128 -34 134 -35 141 -9 3 12 14 20 25 20 17 0 22 -9 27 -53 12
-97 19 -90 -174 -176 -130 -58 -176 -83 -182 -99 -5 -12 -17 -22 -28 -22 -22
0 -29 23 -33 110 -2 53 -1 55 25 58 22 3 27 -1 27 -17 0 -23 12 -26 41 -10 18
9 19 17 13 82 -4 40 -12 75 -18 79 -22 15 -46 8 -46 -12 0 -14 -7 -20 -24 -20
-28 0 -36 21 -36 98 0 49 1 52 25 52 15 0 25 -6 25 -15z m-5589 -718 c6 -23
16 -45 23 -49 6 -4 38 -8 71 -9 33 -1 73 -4 89 -8 26 -5 22 -8 -43 -31 -41
-14 -71 -30 -71 -38 0 -7 4 -11 8 -8 4 2 8 -4 9 -14 1 -10 -5 -21 -13 -24 -11
-4 -12 -11 -3 -33 21 -57 47 -163 40 -163 -5 0 -24 20 -43 45 -19 24 -38 42
-41 39 -3 -4 4 -15 16 -25 12 -10 16 -18 10 -19 -7 0 -13 4 -13 9 0 5 -9 13
-20 16 -15 5 -19 12 -15 25 3 10 0 22 -6 26 -8 4 -9 3 -5 -4 13 -21 -5 -13
-25 11 -10 13 -18 17 -19 9 0 -7 -4 -11 -9 -7 -6 3 -13 0 -18 -7 -4 -7 -25
-21 -45 -30 -21 -10 -38 -22 -38 -28 0 -6 12 -3 28 6 l27 16 -25 -20 c-13 -11
-27 -19 -31 -16 -4 2 -18 -11 -33 -28 -14 -18 -26 -29 -26 -25 0 19 40 147 51
166 12 19 12 24 -4 35 -17 13 -14 46 5 46 24 0 -7 17 -71 40 -82 28 -76 40 21
40 85 0 118 12 118 43 0 13 11 45 25 71 13 25 22 46 19 46 -3 0 -2 5 2 11 7
12 38 -51 55 -114z m5766 66 c12 -32 25 -70 28 -85 8 -30 27 -37 100 -39 28
-1 63 -4 78 -8 26 -5 22 -8 -42 -30 -39 -13 -71 -26 -71 -28 0 -2 5 -14 11
-25 9 -17 8 -23 -4 -30 -13 -6 -14 -15 -6 -41 32 -104 45 -157 39 -157 -4 0
-22 18 -40 40 -31 38 -68 59 -39 23 13 -16 12 -17 -2 -5 -11 8 -15 21 -12 35
5 22 5 22 -10 2 -14 -17 -16 -17 -17 -4 0 9 -7 20 -16 23 -8 3 -12 11 -9 17 4
6 -7 3 -25 -6 -19 -10 -30 -22 -26 -30 3 -9 0 -12 -10 -8 -7 3 -14 10 -14 17
-1 6 -10 0 -21 -14 -44 -53 -81 -91 -85 -87 -5 5 24 104 44 146 14 31 14 35
-2 47 -14 10 -15 16 -7 33 6 11 11 22 11 25 0 2 -32 14 -71 26 -38 12 -67 25
-64 29 4 3 48 9 98 13 122 10 119 10 108 21 -10 10 14 93 30 103 5 3 9 16 9
30 0 40 14 27 37 -33z m-83 -362 c3 -5 0 -11 -7 -14 -8 -3 -14 1 -14 9 0 16
13 19 21 5z m-604 -1099 c0 -2 -8 -14 -18 -26 -14 -18 -21 -21 -34 -12 -14 8
-24 4 -53 -24 -19 -19 -35 -38 -35 -42 0 -11 62 -67 75 -68 6 0 30 23 55 50
l45 50 25 -19 24 -19 -49 -57 -49 -58 45 -38 44 -39 38 41 c42 46 43 51 22 69
-14 12 -13 16 6 36 l22 23 38 -32 c21 -18 39 -37 39 -42 0 -6 -43 -59 -96
-118 -90 -101 -97 -107 -114 -92 -10 9 -15 25 -13 38 4 18 -17 40 -108 120
-89 77 -115 95 -126 86 -10 -9 -18 -8 -32 6 -19 16 -17 20 76 126 l95 108 39
-31 c21 -17 39 -33 39 -36z m-4346 -42 l47 -50 -90 -168 c-63 -118 -90 -177
-88 -198 4 -51 -31 -42 -87 22 -45 52 -48 57 -32 72 13 14 20 14 36 4 16 -10
21 -8 34 10 17 24 19 21 -58 105 -25 28 -31 30 -52 21 -17 -8 -23 -17 -18 -30
3 -10 -2 -25 -12 -35 -16 -16 -19 -14 -65 37 -43 50 -46 56 -32 72 11 13 20
15 33 8 13 -7 55 7 164 53 126 53 146 65 142 81 -5 19 9 46 24 46 3 0 28 -22
54 -50z m252 -251 c89 -74 114 -109 114 -159 0 -45 -54 -100 -106 -107 l-41
-5 -17 -74 c-14 -60 -15 -78 -6 -90 10 -12 9 -18 -5 -34 -18 -20 -19 -19 -74
27 -31 26 -57 48 -59 49 -2 1 1 12 7 23 7 13 20 20 33 18 18 -2 24 6 36 47 14
47 13 48 -14 77 -15 16 -31 29 -34 29 -4 0 -21 -18 -39 -40 -26 -32 -30 -44
-21 -55 8 -10 8 -19 0 -34 -6 -12 -13 -21 -15 -21 -2 0 -32 23 -65 51 -59 49
-61 52 -44 70 12 13 21 16 34 9 14 -8 34 11 115 107 82 97 96 118 87 133 -8
13 -7 21 6 34 9 9 18 16 20 16 3 0 42 -32 88 -71z m3720 -21 c-5 -25 5 -41 90
-133 53 -58 99 -105 102 -105 4 0 24 17 45 36 38 35 38 36 22 61 -16 24 -16
26 5 47 l21 21 40 -44 c21 -24 39 -47 39 -52 0 -10 -210 -199 -221 -199 -14 0
-30 38 -19 45 5 3 10 10 10 15 0 5 -44 58 -97 117 -66 72 -105 108 -119 108
-11 0 -29 7 -38 15 -17 13 -14 18 41 66 45 40 61 50 71 41 9 -7 12 -22 8 -39z
m-136 -112 c-19 -19 -10 -36 77 -152 64 -86 91 -114 104 -111 16 4 58 -28 48
-36 -2 -2 -30 -23 -63 -47 -56 -42 -59 -43 -72 -25 -16 22 -18 35 -4 35 22 0
7 27 -77 141 -75 101 -91 118 -110 114 -32 -7 -52 31 -26 50 10 7 36 27 58 43
37 28 41 29 58 15 12 -11 14 -20 7 -27z m-3283 -104 c5 -11 -30 -229 -43 -274
-3 -10 -2 -18 3 -18 4 0 59 41 121 91 l113 90 54 -31 c30 -17 55 -33 55 -36 0
-18 -26 -40 -44 -37 -18 4 -31 -13 -89 -122 -66 -125 -77 -155 -57 -155 15 0
12 -26 -5 -40 -11 -10 -25 -6 -69 20 -31 17 -58 36 -62 41 -9 16 17 40 36 34
15 -5 28 14 69 91 28 54 50 99 48 101 -2 1 -48 -31 -101 -73 -93 -72 -99 -75
-127 -64 -23 10 -27 17 -23 39 2 14 11 62 19 106 26 138 22 141 -47 36 -57
-85 -61 -94 -45 -106 16 -12 16 -14 0 -33 l-18 -21 -62 35 c-55 31 -62 38 -53
55 6 10 21 19 34 19 18 0 40 25 106 122 71 103 81 124 71 140 -8 14 -8 23 1
37 12 19 13 19 61 -7 27 -15 51 -33 54 -40z m3138 18 c4 -12 1 -27 -5 -35 -18
-22 129 -270 160 -270 23 -1 45 -29 35 -44 -7 -12 -109 -71 -123 -71 -16 0
-23 29 -10 49 9 15 6 28 -17 67 -15 27 -29 51 -31 53 -4 4 -154 -82 -154 -88
0 -4 14 -29 30 -58 23 -40 34 -50 49 -46 13 3 23 -2 30 -15 12 -23 10 -26 -67
-68 -52 -28 -53 -29 -67 -10 -13 17 -13 22 0 36 14 15 8 29 -62 149 -53 90
-82 130 -92 126 -16 -6 -41 12 -41 30 0 6 10 17 23 23 12 6 41 22 64 37 41 25
42 25 53 6 8 -15 7 -26 -1 -40 -10 -15 -8 -26 15 -65 l27 -46 52 31 c29 16 62
35 75 41 28 14 28 21 -4 75 -19 34 -30 43 -44 38 -13 -4 -22 1 -31 17 -6 12
-8 23 -3 25 5 2 34 19 64 38 65 41 67 41 75 15z m-374 -272 c18 -47 18 -48 -1
-58 -29 -15 -39 -12 -52 15 -13 29 -36 32 -78 10 -61 -31 -76 -94 -43 -177 42
-109 114 -145 192 -97 33 20 34 27 16 71 -5 12 1 18 25 23 17 4 33 5 34 3 1
-1 10 -23 19 -47 16 -44 16 -45 -4 -67 -29 -31 -94 -61 -151 -69 -68 -10 -129
19 -168 82 -42 65 -64 144 -55 198 12 85 118 167 209 162 36 -2 40 -5 57 -49z
m-2242 -8 c13 -7 15 -32 13 -142 -1 -73 -5 -160 -8 -194 -5 -50 -3 -62 10 -67
18 -7 20 -25 7 -46 -7 -11 -22 -9 -80 14 -60 24 -71 32 -69 49 2 15 12 22 31
24 22 3 27 8 27 30 0 24 -8 30 -70 53 -67 26 -70 26 -86 8 -13 -15 -14 -22 -5
-33 13 -15 6 -56 -8 -56 -12 0 -114 42 -124 51 -13 11 11 49 27 43 9 -4 55 41
126 122 100 115 109 129 91 136 -18 6 -19 11 -10 32 l12 25 50 -20 c28 -11 58
-24 66 -29z m298 -96 c114 -30 163 -58 186 -107 32 -67 14 -184 -38 -254 -31
-39 -94 -73 -140 -73 -28 1 -223 44 -231 52 -2 2 -1 14 3 26 3 14 13 22 27 22
20 0 25 13 57 148 32 134 34 148 19 155 -20 10 -15 57 5 57 7 0 57 -12 112
-26z m1479 -44 c10 -49 10 -49 -19 -60 -38 -13 -37 -13 -37 10 0 23 -17 25
-72 9 -41 -11 -44 -20 -28 -80 l10 -36 62 14 c71 16 84 14 90 -21 5 -23 1 -25
-67 -41 -80 -18 -76 -9 -54 -96 l9 -37 53 12 c45 10 52 15 55 38 4 30 49 49
63 26 13 -21 22 -89 13 -97 -5 -5 -65 -20 -133 -35 -69 -15 -129 -30 -134 -33
-5 -3 -13 1 -18 8 -14 22 -10 49 6 49 20 0 20 4 -17 168 -26 117 -34 142 -49
142 -16 0 -37 36 -27 46 5 5 246 61 269 63 10 1 18 -14 25 -49z m-986 -50 c4
-6 27 -92 51 -191 36 -147 47 -179 62 -179 12 0 17 -8 17 -29 l0 -30 -72 5
c-95 7 -96 8 -91 38 4 17 12 26 24 26 19 0 25 25 11 46 -4 6 -40 14 -80 18
-71 6 -73 6 -82 -20 -13 -33 -13 -34 5 -34 10 0 15 -10 15 -26 l0 -27 -70 5
c-39 3 -73 7 -75 10 -9 9 8 47 23 50 10 2 42 62 83 153 62 136 66 150 49 153
-14 2 -20 11 -20 29 l0 26 72 -6 c39 -3 74 -11 78 -17z m594 -13 c55 -31 76
-72 83 -160 13 -178 -57 -239 -288 -248 -55 -2 -64 0 -68 16 -2 10 6 25 17 34
20 15 20 21 11 131 -15 168 -17 177 -39 183 -13 3 -20 14 -20 30 0 29 14 32
175 35 77 1 96 -2 129 -21z"/>
<path d="M3224 8380 c-5 -50 -8 -93 -6 -94 5 -6 107 21 105 27 -7 19 -63 124
-75 141 -13 16 -15 8 -24 -74z"/>
<path d="M5187 8079 c-38 -72 -67 -132 -65 -134 16 -15 88 -45 106 -45 66 0
152 111 152 196 0 38 -79 114 -117 114 -4 0 -39 -59 -76 -131z"/>
<path d="M3610 7873 c-263 -40 -343 -57 -510 -113 -367 -122 -661 -303 -948
-584 -218 -214 -339 -382 -481 -666 -175 -353 -263 -758 -247 -1134 20 -473
152 -886 405 -1267 590 -889 1678 -1289 2704 -993 825 237 1472 909 1682 1744
147 583 69 1219 -212 1740 -380 704 -1080 1179 -1871 1270 -81 9 -467 12 -522
3z m284 -265 c23 -33 19 -64 -11 -88 l-27 -21 23 -6 c17 -4 21 -12 19 -31 -3
-24 -7 -26 -51 -27 -66 -1 -88 38 -33 59 19 6 19 7 -2 22 -27 18 -29 69 -5 96
23 25 68 23 87 -4z m-184 -138 c55 -55 -24 -135 -82 -83 -24 21 -24 78 0 92
27 16 60 13 82 -9z m348 -2 c21 -18 15 -75 -10 -92 -31 -22 -45 -20 -73 9 -32
31 -31 50 0 81 26 25 52 26 83 2z m-178 -244 l0 -195 -37 3 -38 3 -3 60 c-2
33 -1 120 3 193 l7 132 34 0 34 0 0 -196z m-990 150 c102 -30 195 -106 241
-196 26 -52 43 -155 30 -188 -7 -19 -10 -21 -14 -10 -3 8 -15 42 -27 76 -12
33 -38 83 -59 110 -44 59 -130 121 -180 130 -38 8 -126 60 -135 82 -8 18 78
16 144 -4z m642 -27 c28 -22 33 -62 9 -86 -40 -40 -103 -13 -103 44 0 45 56
70 94 42z m186 -19 c3 -27 2 -28 -48 -28 -52 0 -69 13 -56 46 4 11 18 14 53
12 44 -3 48 -5 51 -30z m1242 22 c8 -5 12 -10 10 -12 -3 -2 -23 -17 -45 -34
-22 -17 -56 -34 -75 -37 -111 -21 -226 -135 -266 -262 -25 -77 -38 -69 -32 18
9 128 71 219 197 286 78 41 179 61 211 41z m-892 -27 c3 -21 0 -23 -52 -23
-57 0 -70 7 -60 35 5 12 18 15 58 13 44 -3 51 -6 54 -25z m150 11 c44 -31 17
-104 -39 -104 -39 0 -66 41 -53 78 8 22 26 34 64 41 3 1 16 -6 28 -15z m-964
-93 c31 -60 47 -157 40 -231 -12 -125 -20 -143 -42 -97 -10 20 -11 19 -11 -16
-2 -83 -111 -225 -234 -306 -96 -62 -113 -55 -47 19 76 85 119 145 164 231 61
115 86 214 86 346 0 61 4 103 10 103 5 0 21 -22 34 -49z m441 -81 c0 -125 0
-125 25 -131 14 -4 168 -7 343 -8 l317 -1 0 -25 0 -25 -313 0 c-173 0 -402 3
-510 7 l-197 6 0 24 0 23 148 1 c81 0 141 3 135 6 -10 3 -13 38 -13 123 0 123
3 131 45 127 19 -2 20 -9 20 -127z m-876 107 c12 -15 5 -27 -17 -27 -23 0
-114 -49 -146 -78 -54 -51 -72 -133 -41 -192 13 -24 13 -30 2 -30 -18 0 -53
39 -66 73 -17 45 -13 118 8 153 39 64 129 112 212 113 20 1 42 -5 48 -12z
m1229 -109 l-3 -123 -37 -3 -38 -3 0 94 c0 52 3 109 6 126 6 27 10 31 41 31
l34 0 -3 -122z m458 -5 c1 -215 53 -342 232 -562 49 -61 53 -77 14 -57 -133
69 -282 246 -282 336 0 16 -4 30 -10 30 -5 0 -10 -7 -10 -15 0 -8 -4 -15 -9
-15 -28 0 -29 217 -1 297 21 59 45 103 58 103 5 0 8 -53 8 -117z m559 57 c27
-14 62 -42 79 -62 54 -68 37 -191 -33 -237 -24 -16 -24 -15 -17 9 33 110 26
146 -36 207 -37 37 -84 63 -151 87 -10 3 -15 11 -11 17 11 19 115 5 169 -21z
m-2135 5 c144 -51 215 -178 176 -313 -33 -115 -140 -293 -166 -277 -5 3 15 50
43 105 44 86 52 109 55 169 4 68 2 75 -46 175 -3 5 1 5 8 1 29 -18 1 21 -30
43 -70 47 -185 55 -238 15 -72 -53 -87 -119 -42 -183 26 -37 12 -39 -29 -5
-44 38 -57 86 -37 139 43 111 187 173 306 131z m618 -12 c3 -21 0 -23 -51 -23
-37 0 -57 4 -60 14 -9 23 16 37 63 34 38 -3 45 -7 48 -25z m682 2 c23 -28 4
-45 -50 -45 -36 0 -52 4 -56 15 -10 25 16 45 56 45 21 0 43 -7 50 -15z m709
-21 c72 -21 146 -93 156 -150 8 -51 -13 -105 -49 -130 -36 -23 -43 -12 -17 24
57 80 -6 182 -121 198 -57 8 -148 -17 -185 -52 -15 -14 -22 -23 -15 -19 16 8
15 -16 -2 -41 -8 -11 -22 -43 -31 -71 -15 -47 -15 -56 0 -115 8 -34 34 -99 55
-142 60 -118 35 -117 -44 3 -43 65 -76 143 -76 181 0 10 -5 22 -11 26 -17 10
-4 97 24 157 27 59 78 100 160 128 64 23 89 23 156 3z m-1409 -84 l0 -60 -35
0 -35 0 0 60 0 60 35 0 35 0 0 -60z m688 -7 l-3 -58 -35 0 c-32 0 -35 2 -38
34 -6 62 4 81 44 81 l35 0 -3 -57z m-690 -300 l2 -173 -40 0 -40 0 0 153 c0
189 3 199 44 195 l31 -3 3 -172z m171 125 c0 -35 -5 -47 -29 -66 -38 -30 -50
-22 -50 33 0 64 7 75 46 75 33 0 34 -1 33 -42z m179 15 c3 -21 -1 -23 -37 -23
-33 0 -41 4 -41 18 0 27 10 33 45 30 22 -2 31 -9 33 -25z m332 -144 l0 -170
-37 3 c-29 2 -38 7 -37 21 0 9 1 82 2 161 2 155 1 151 55 155 16 1 17 -13 17
-170z m-166 126 c-1 -16 -2 -45 -3 -63 l-1 -34 -34 29 c-28 22 -35 35 -35 66
-1 38 -1 38 37 35 34 -3 37 -5 36 -33z m-1079 -6 c14 -21 -26 -47 -83 -54 -58
-7 -141 -44 -201 -89 -19 -14 -36 -24 -39 -22 -16 17 75 103 144 136 66 33
167 49 179 29z m50 -29 c11 -17 -24 -112 -63 -175 -30 -47 -43 -59 -60 -58
-12 2 -22 -2 -22 -7 0 -16 -151 -170 -166 -170 -23 0 -16 13 33 71 56 65 101
134 144 220 18 38 48 77 71 97 43 34 53 38 63 22z m772 -16 c-9 -9 -28 6 -21
18 4 6 10 6 17 -1 6 -6 8 -13 4 -17z m39 11 c-3 -8 -1 -15 4 -15 6 0 10 -5 10
-11 0 -6 -9 -9 -20 -6 -11 3 -23 1 -26 -4 -3 -5 -10 -6 -16 -3 -7 5 -3 10 10
15 14 5 20 14 16 24 -4 10 0 15 11 15 11 0 15 -5 11 -15z m72 -4 c3 -10 0 -12
-12 -8 -10 4 -24 7 -32 7 -8 0 -14 4 -14 9 0 15 53 7 58 -8z m1007 -15 c30
-13 77 -46 105 -72 61 -57 69 -91 11 -45 -54 43 -144 83 -200 89 -48 5 -81 25
-81 50 0 22 97 9 165 -22z m-1155 16 c0 -13 -12 -22 -22 -16 -10 6 -1 24 13
24 5 0 9 -4 9 -8z m180 -7 c0 -8 -4 -15 -10 -15 -5 0 -10 7 -10 15 0 8 5 15
10 15 6 0 10 -7 10 -15z m40 -21 c0 -8 -4 -12 -10 -9 -5 3 -10 13 -10 21 0 8
5 12 10 9 6 -3 10 -13 10 -21z m789 -19 c38 -35 50 -42 55 -30 12 34 105 2
184 -62 60 -49 126 -141 141 -196 22 -76 7 -74 -43 7 -26 42 -52 74 -57 70 -5
-3 -37 20 -70 50 -56 53 -159 116 -159 99 1 -20 87 -164 140 -233 33 -42 60
-80 60 -84 0 -3 -12 0 -27 8 -33 17 -89 76 -127 133 -20 29 -32 39 -46 36 -35
-9 -133 188 -116 234 8 19 12 17 65 -32z m-1044 25 c3 -5 15 -10 26 -10 11 0
18 -4 15 -9 -3 -4 -21 -3 -40 3 -19 6 -32 14 -30 18 7 11 22 10 29 -2z m155 0
c0 -5 -4 -10 -10 -10 -5 0 -10 5 -10 10 0 6 5 10 10 10 6 0 10 -4 10 -10z m40
-10 c0 -5 -4 -10 -9 -10 -6 0 -13 5 -16 10 -3 6 1 10 9 10 9 0 16 -4 16 -10z
m90 -16 c0 -8 -4 -12 -10 -9 -5 3 -10 13 -10 21 0 8 5 12 10 9 6 -3 10 -13 10
-21z m-1112 -11 c3 -17 -6 -26 -43 -42 -25 -11 -75 -48 -111 -82 -58 -56 -70
-63 -65 -35 5 23 -27 -19 -64 -83 -41 -72 -55 -85 -55 -52 0 60 74 179 150
240 50 40 138 82 165 79 12 -2 21 -12 23 -25z m1052 21 c0 -3 -7 -12 -15 -20
-16 -17 -18 -14 -9 10 6 15 24 23 24 10z m-265 -14 c-3 -5 -2 -10 4 -10 5 0
11 6 14 13 3 9 9 9 25 0 12 -7 28 -10 37 -7 8 4 23 0 32 -7 15 -12 16 -12 10
4 -4 11 -2 17 8 17 8 0 15 -4 15 -10 0 -5 5 -10 11 -10 5 0 7 5 4 10 -11 17
17 11 31 -7 13 -17 14 -17 7 2 -4 12 8 5 36 -22 32 -31 42 -47 38 -62 -3 -12
0 -21 6 -21 6 0 8 -2 5 -5 -10 -10 -36 6 -41 26 -3 11 -14 19 -26 19 -18 0
-20 -3 -11 -19 5 -11 10 -55 10 -99 0 -62 4 -82 18 -95 14 -13 20 -13 35 -3
11 9 15 20 11 32 -5 16 -4 16 5 4 13 -18 13 -116 1 -145 -5 -11 -9 -14 -9 -6
-1 7 -7 11 -15 8 -9 -4 -17 1 -20 11 -4 10 -15 18 -25 18 -11 0 -18 -3 -15 -7
2 -4 -5 -10 -16 -14 -29 -9 -25 -35 5 -35 14 0 25 6 26 13 0 6 5 -1 9 -16 15
-48 5 -57 -66 -57 -71 0 -82 9 -69 58 4 15 10 21 12 15 7 -19 23 -16 24 5 1
16 2 16 6 0 5 -21 23 -24 23 -5 0 36 -109 44 -111 8 0 -13 -2 -13 -6 -1 -8 20
-29 40 -43 40 -6 0 -8 5 -5 10 4 6 11 8 16 5 5 -4 9 -1 9 4 0 6 -7 11 -15 11
-10 0 -15 11 -15 35 0 19 5 35 10 35 6 0 8 -13 5 -30 -3 -17 -1 -30 5 -30 5 0
10 9 10 20 0 22 10 26 26 10 12 -12 44 -3 44 11 0 5 -16 9 -35 9 -30 0 -34 2
-23 14 10 10 15 11 21 2 6 -8 10 -8 14 2 2 6 9 12 14 12 6 0 7 -4 4 -10 -3 -5
-2 -10 3 -10 20 0 30 114 16 168 -8 28 -24 29 -24 1 0 -12 -4 -18 -11 -13 -6
3 -15 0 -20 -7 -6 -9 -7 -1 -3 21 l6 35 -16 -29 c-9 -15 -16 -42 -16 -59 0
-21 -3 -28 -10 -21 -6 6 -6 21 -1 42 6 19 6 32 0 32 -5 0 -12 -12 -15 -26 -5
-19 -9 -23 -18 -14 -8 8 -7 13 3 19 9 6 11 18 7 34 -3 14 -2 28 3 32 5 3 8 17
5 30 -2 14 0 25 6 25 6 0 8 -4 5 -10z m295 -6 c0 -3 -7 -12 -15 -21 -20 -19
-32 -10 -14 11 14 15 29 21 29 10z m60 -25 c0 -5 -4 -9 -10 -9 -5 0 -10 7 -10
16 0 8 5 12 10 9 6 -3 10 -10 10 -16z m-388 -11 c-7 -7 -12 -8 -12 -2 0 14 12
26 19 19 2 -3 -1 -11 -7 -17z m358 1 c0 -5 -4 -9 -10 -9 -5 0 -10 7 -10 16 0
8 5 12 10 9 6 -3 10 -10 10 -16z m-31 -53 c-9 -8 -10 -7 -6 6 3 10 2 20 -4 23
-5 4 -6 11 -3 17 5 7 11 2 16 -12 6 -15 5 -27 -3 -34z m67 7 c-11 -11 -19 6
-11 24 8 17 8 17 12 0 3 -10 2 -21 -1 -24z m-399 -5 c-3 -7 -5 -2 -5 12 0 14
2 19 5 13 2 -7 2 -19 0 -25z m373 17 c0 -8 -4 -15 -10 -15 -5 0 -10 7 -10 15
0 8 5 15 10 15 6 0 10 -7 10 -15z m-1170 -15 c0 -5 -23 -35 -51 -66 -55 -60
-149 -199 -149 -219 0 -6 -20 -26 -45 -44 l-45 -32 0 28 c0 50 49 131 134 220
93 99 156 144 156 113z m1160 -20 c0 -5 -7 -10 -16 -10 -8 0 -12 5 -9 10 3 6
10 10 16 10 5 0 9 -4 9 -10z m30 3 c0 -5 -9 -19 -19 -32 -12 -16 -20 -20 -25
-12 -4 6 0 14 8 17 9 3 16 12 16 20 0 8 5 14 10 14 6 0 10 -3 10 -7z m917 -52
c75 -62 166 -181 189 -248 10 -29 16 -55 12 -58 -11 -11 -77 39 -89 68 -19 45
-87 147 -139 207 -59 70 -65 80 -46 80 8 0 41 -22 73 -49z m-1204 19 c3 -11 1
-20 -4 -20 -5 0 -9 9 -9 20 0 11 2 20 4 20 2 0 6 -9 9 -20z m-23 -6 c0 -8 -4
-12 -10 -9 -5 3 -10 10 -10 16 0 5 5 9 10 9 6 0 10 -7 10 -16z m250 6 c0 -5
-4 -10 -10 -10 -5 0 -10 5 -10 10 0 6 5 10 10 10 6 0 10 -4 10 -10z m-280 -55
c18 -22 8 -27 -34 -20 -33 7 -36 10 -36 42 l0 34 28 -20 c16 -11 35 -27 42
-36z m250 41 c0 -3 -4 -8 -10 -11 -5 -3 -10 -1 -10 4 0 6 5 11 10 11 6 0 10
-2 10 -4z m100 -25 c0 -30 -14 -41 -56 -41 -33 0 -30 15 6 37 17 9 30 21 30
25 0 4 5 8 10 8 6 0 10 -13 10 -29z m-60 9 c0 -5 -4 -10 -9 -10 -6 0 -13 5
-16 10 -3 6 1 10 9 10 9 0 16 -4 16 -10z m-260 -10 c0 -5 -2 -10 -4 -10 -3 0
-8 5 -11 10 -3 6 -1 10 4 10 6 0 11 -4 11 -10z m230 -4 c0 -2 -7 -6 -15 -10
-8 -3 -15 -1 -15 4 0 6 7 10 15 10 8 0 15 -2 15 -4z m-1572 -20 c75 -39 142
-154 142 -243 0 -29 3 -53 6 -53 3 0 27 19 55 43 65 56 162 114 224 133 58 19
228 31 205 15 -8 -5 -37 -13 -65 -16 -51 -7 -77 -18 -175 -73 -70 -40 -96 -63
-149 -134 -39 -52 -58 -68 -82 -68 -6 0 -7 9 -4 20 15 48 -28 12 -76 -63 -17
-26 -36 -44 -41 -41 -7 4 -9 37 -6 88 3 45 3 71 1 59 -2 -13 -8 -23 -13 -23
-11 0 -17 21 -25 90 -18 142 -67 205 -188 244 -29 9 -9 26 31 26 66 0 108 -18
151 -65 23 -25 44 -58 47 -73 6 -27 44 -64 44 -42 0 28 -47 104 -86 140 -24
22 -44 43 -44 45 0 9 21 5 48 -9z m1033 -26 c6 0 7 5 4 10 -3 6 -1 10 4 10 6
0 11 -7 11 -15 0 -9 9 -15 25 -15 23 0 25 -3 25 -50 0 -38 -4 -50 -15 -50 -8
0 -15 -6 -16 -12 0 -10 -2 -10 -5 -1 -3 7 -12 9 -21 6 -11 -4 -14 -2 -9 5 4 7
2 12 -3 12 -6 0 -11 -4 -11 -10 0 -5 -5 -10 -11 -10 -6 0 -9 7 -5 15 3 8 0 15
-7 15 -8 0 -7 4 3 11 12 9 13 12 1 16 -11 5 -11 7 0 14 12 8 11 11 -1 19 -10
6 -11 10 -2 10 6 0 12 10 13 23 0 12 3 16 6 10 2 -7 9 -13 14 -13z m44 10 c3
-5 1 -10 -4 -10 -6 0 -11 5 -11 10 0 6 2 10 4 10 3 0 8 -4 11 -10z m826 0 c8
12 9 10 4 -9 -5 -16 -4 -21 4 -17 6 4 11 2 11 -3 0 -6 -6 -11 -12 -11 -9 0 -8
-4 2 -10 10 -7 12 -12 4 -17 -6 -5 -14 -21 -18 -37 -6 -23 -9 -27 -17 -15 -7
12 -9 11 -9 -3 0 -20 -20 -25 -20 -5 0 7 -7 4 -15 -7 -8 -11 -15 -15 -15 -9 0
7 -9 15 -20 18 -11 3 -20 11 -20 16 0 6 5 7 10 4 6 -3 10 -1 10 4 0 6 -6 11
-12 12 -9 0 -9 2 1 6 11 5 11 7 0 14 -12 8 -11 11 1 19 10 6 11 10 3 10 -7 0
-13 4 -13 10 0 5 7 7 15 4 9 -4 15 0 15 10 0 9 5 16 11 16 5 0 7 -4 4 -10 -4
-6 5 -10 19 -10 18 0 26 5 26 18 0 14 2 15 10 2 9 -13 11 -13 21 0z m-131 -10
c0 -5 -4 -10 -10 -10 -5 0 -10 5 -10 10 0 6 5 10 10 10 6 0 10 -4 10 -10z
m-555 -10 c-3 -5 -2 -10 4 -10 5 0 12 6 14 13 3 6 6 -19 6 -56 1 -50 -3 -73
-15 -84 -13 -14 -17 -14 -25 -2 -7 12 -9 12 -10 -1 -2 -37 -18 29 -18 78 -1
40 2 52 14 52 8 0 15 5 15 10 0 6 5 10 11 10 5 0 7 -4 4 -10z m55 0 c0 -5 -4
-10 -10 -10 -5 0 -10 5 -10 10 0 6 5 10 10 10 6 0 10 -4 10 -10z m30 0 c0 -5
-4 -10 -10 -10 -5 0 -10 5 -10 10 0 6 5 10 10 10 6 0 10 -4 10 -10z m240 -5
c11 -13 10 -14 -4 -9 -9 3 -16 10 -16 15 0 13 6 11 20 -6z m110 5 c0 -5 -4
-10 -10 -10 -5 0 -10 5 -10 10 0 6 5 10 10 10 6 0 10 -4 10 -10z m51 -2 c0
-10 2 -10 6 0 8 21 23 13 23 -13 0 -18 4 -23 15 -19 8 4 15 1 15 -5 0 -6 -8
-12 -17 -12 -17 -1 -17 -2 0 -6 18 -5 24 -35 6 -30 -7 1 -16 -14 -22 -33 -5
-19 -12 -29 -14 -22 -4 10 -9 8 -19 -5 -13 -17 -13 -17 -14 0 0 10 -4 15 -10
12 -6 -4 -10 17 -10 54 0 47 3 61 15 61 9 0 12 6 9 15 -4 8 -1 15 5 15 6 0 11
-6 12 -12z m1248 -30 c-45 -41 -90 -113 -88 -140 0 -10 2 -10 6 0 2 6 10 12
18 12 7 0 15 14 19 30 9 47 87 117 139 125 53 8 103 3 100 -10 -1 -5 -22 -15
-47 -22 -31 -9 -56 -27 -84 -58 -39 -44 -50 -75 -80 -210 -5 -22 -14 -39 -20
-37 -8 1 -12 -19 -12 -63 0 -36 -4 -65 -10 -65 -5 0 -22 19 -37 43 -52 81 -90
112 -77 62 13 -51 -18 -25 -113 93 -49 61 -206 151 -288 165 -88 15 -84 31 8
24 119 -9 257 -74 366 -172 40 -36 41 -37 41 -13 0 47 31 140 61 184 33 49 93
94 124 94 15 0 10 -9 -26 -42z m-1819 22 c0 -5 -4 -10 -10 -10 -5 0 -10 5 -10
10 0 6 5 10 10 10 6 0 10 -4 10 -10z m30 0 c0 -5 -4 -10 -10 -10 -5 0 -10 5
-10 10 0 6 5 10 10 10 6 0 10 -4 10 -10z m110 -20 c0 -5 -4 -10 -10 -10 -5 0
-10 5 -10 10 0 6 5 10 10 10 6 0 10 -4 10 -10z m350 0 c0 -5 -4 -10 -10 -10
-5 0 -10 5 -10 10 0 6 5 10 10 10 6 0 10 -4 10 -10z m30 0 c0 -5 -4 -10 -10
-10 -5 0 -10 5 -10 10 0 6 5 10 10 10 6 0 10 -4 10 -10z m-520 -10 c0 -5 -4
-10 -10 -10 -5 0 -10 5 -10 10 0 6 5 10 10 10 6 0 10 -4 10 -10z m30 0 c0 -5
-4 -10 -10 -10 -5 0 -10 5 -10 10 0 6 5 10 10 10 6 0 10 -4 10 -10z m107 -30
c-5 -31 -17 -36 -17 -7 0 15 4 27 10 27 5 0 9 -9 7 -20z m353 10 c0 -5 -4 -10
-10 -10 -5 0 -10 5 -10 10 0 6 5 10 10 10 6 0 10 -4 10 -10z m30 -10 c0 -11
-4 -20 -10 -20 -5 0 -10 9 -10 20 0 11 5 20 10 20 6 0 10 -9 10 -20z m-520 0
c0 -5 -4 -10 -10 -10 -5 0 -10 5 -10 10 0 6 5 10 10 10 6 0 10 -4 10 -10z
m-357 -26 c9 -3 17 -10 17 -15 0 -6 -9 -7 -20 -4 -28 9 -165 -13 -224 -36 -59
-24 -101 -55 -102 -77 -1 -10 -20 -46 -42 -81 -37 -56 -82 -156 -82 -181 0
-24 -22 -17 -40 12 -28 47 -25 68 17 119 66 79 67 85 1 17 -35 -38 -67 -68
-71 -68 -11 0 3 49 26 95 23 46 69 91 148 145 106 73 264 104 372 74z m382 6
c3 -5 1 -10 -4 -10 -6 0 -11 5 -11 10 0 6 2 10 4 10 3 0 8 -4 11 -10z m460 0
c3 -5 1 -10 -4 -10 -6 0 -11 5 -11 10 0 6 2 10 4 10 3 0 8 -4 11 -10z m35 -20
c0 -5 -4 -10 -10 -10 -5 0 -10 5 -10 10 0 6 5 10 10 10 6 0 10 -4 10 -10z
m750 -16 c127 -36 263 -148 295 -243 9 -29 15 -55 11 -58 -3 -3 -38 28 -78 69
-40 41 -57 56 -37 34 87 -99 97 -131 58 -180 -25 -32 -31 -27 -48 34 -14 48
-55 132 -93 189 -21 33 -21 34 -3 28 36 -12 -48 53 -94 73 -63 29 -114 41
-188 45 -73 4 -89 11 -47 20 16 4 34 8 39 11 18 7 129 -7 185 -22z m-1300 6
c0 -5 -5 -10 -11 -10 -5 0 -7 5 -4 10 3 6 8 10 11 10 2 0 4 -4 4 -10z m30 0
c0 -5 -5 -10 -11 -10 -5 0 -7 5 -4 10 3 6 8 10 11 10 2 0 4 -4 4 -10z m24 -5
c-4 -8 -8 -15 -10 -15 -2 0 -4 7 -4 15 0 8 4 15 10 15 5 0 7 -7 4 -15z m112
-5 c0 -11 -4 -20 -8 -20 -4 0 -8 9 -8 20 0 11 4 20 8 20 4 0 8 -9 8 -20z m349
10 c3 -5 1 -10 -4 -10 -6 0 -11 5 -11 10 0 6 2 10 4 10 3 0 8 -4 11 -10z m175
0 c0 -5 -2 -10 -4 -10 -3 0 -8 5 -11 10 -3 6 -1 10 4 10 6 0 11 -4 11 -10z
m-490 -14 c0 -3 -4 -8 -10 -11 -5 -3 -10 -1 -10 4 0 6 5 11 10 11 6 0 10 -2
10 -4z m350 -6 c0 -5 -4 -10 -10 -10 -5 0 -10 5 -10 10 0 6 5 10 10 10 6 0 10
-4 10 -10z m-517 -17 c4 -2 7 -76 7 -165 0 -142 -2 -159 -16 -154 -9 3 -27 6
-40 6 -22 0 -24 4 -24 53 0 28 3 103 7 164 l6 113 26 -7 c14 -3 29 -8 34 -10z
m487 7 c0 -5 -4 -10 -10 -10 -5 0 -10 5 -10 10 0 6 5 10 10 10 6 0 10 -4 10
-10z m200 -157 l0 -158 -28 -13 c-15 -8 -33 -16 -39 -19 -15 -6 -17 54 -7 219
l7 106 31 10 c17 5 32 10 34 11 1 1 2 -70 2 -156z m-567 105 c18 16 20 16 33
-3 12 -16 18 -18 34 -7 17 11 20 10 20 -8 0 -11 -4 -20 -8 -20 -5 0 -7 -13 -4
-30 l4 -30 -56 0 c-54 0 -56 1 -56 28 0 15 -7 36 -15 46 -19 25 -8 43 13 22
14 -14 18 -14 35 2z m406 -5 c9 -16 13 -16 31 -5 25 15 35 10 27 -13 -5 -11
-22 -15 -72 -15 -50 0 -67 4 -72 15 -3 9 -2 19 2 23 4 4 10 1 12 -5 6 -18 30
-16 37 2 7 20 23 19 35 -2z m-979 -53 c0 -5 -6 -10 -13 -10 -34 0 -127 -82
-172 -152 -27 -40 -63 -90 -82 -111 -18 -20 -33 -48 -33 -61 0 -37 29 -183 51
-259 11 -38 18 -72 14 -75 -9 -10 -42 35 -73 98 -24 50 -27 65 -27 175 0 120
0 120 39 198 42 85 109 154 181 188 43 20 115 26 115 9z m106 -31 c18 -30 22
-83 9 -110 -16 -29 -60 -45 -95 -34 -27 9 -25 25 3 25 36 0 61 23 53 48 l-7
22 -32 -23 c-17 -12 -37 -29 -44 -37 -10 -13 -12 -11 -18 12 -9 35 7 62 46 78
24 10 36 11 50 2 29 -18 23 5 -6 24 -14 9 -25 20 -25 25 0 11 56 -16 66 -32z
m603 -19 c-2 -56 -4 -60 -25 -60 -13 0 -24 5 -24 10 0 6 7 10 15 10 14 0 18
18 18 83 0 9 4 17 9 17 5 0 8 -27 7 -60z m121 30 c0 -21 -5 -30 -17 -31 -17
-1 -17 -2 0 -6 25 -7 23 -53 -3 -53 -10 0 -23 7 -28 16 -8 15 -10 15 -15 0 -4
-9 -16 -16 -27 -16 -30 0 -28 49 3 51 l22 2 -22 4 c-18 3 -23 11 -23 34 0 29
1 29 55 29 54 0 55 0 55 -30z m190 0 c0 -27 -3 -30 -32 -31 -18 -1 -25 -3 -15
-6 23 -6 22 -23 -3 -23 -14 0 -18 -5 -13 -17 4 -11 8 -12 11 -5 4 14 52 16 52
2 0 -5 -7 -10 -15 -10 -8 0 -15 -4 -15 -10 0 -5 7 -7 15 -4 8 4 15 1 15 -5 0
-6 -8 -11 -17 -12 -16 0 -16 -1 1 -8 14 -5 16 -10 7 -15 -16 -10 -44 1 -36 14
3 5 2 10 -3 10 -6 0 -12 -7 -15 -15 -4 -10 3 -16 26 -20 25 -5 32 -12 33 -31
2 -19 -3 -24 -22 -24 -28 0 -32 16 -6 23 10 3 7 5 -10 6 -20 1 -26 -3 -22 -14
5 -11 -1 -15 -20 -15 -14 0 -26 5 -26 10 0 6 7 10 16 10 8 0 12 5 9 10 -4 6
-11 8 -16 5 -5 -4 -9 -1 -9 4 0 6 8 12 18 12 16 1 16 2 0 6 -11 3 -18 14 -18
29 0 16 6 24 18 25 16 1 16 2 0 6 -21 5 -24 23 -5 24 10 0 10 2 0 6 -7 2 -13
9 -13 14 0 6 4 8 8 5 4 -2 14 -1 22 5 12 7 10 9 -7 9 -19 0 -23 6 -23 30 0 30
1 30 55 30 54 0 55 0 55 -30z m510 0 c0 -5 -9 -14 -20 -20 -11 -6 -20 -15 -20
-21 0 -6 6 -6 19 0 14 8 27 5 52 -12 34 -23 45 -46 35 -73 -5 -12 -14 -8 -46
18 -34 27 -43 30 -51 18 -16 -26 -5 -44 34 -55 21 -6 35 -14 31 -18 -14 -13
-77 -7 -96 10 -22 20 -24 73 -3 113 19 37 65 66 65 40z m168 -14 c107 -54 201
-199 209 -324 8 -114 -33 -258 -88 -308 -31 -28 -32 -11 -6 69 34 101 63 255
51 271 -36 49 -105 144 -134 185 -20 29 -60 66 -92 88 -32 20 -58 38 -58 40 0
13 80 -2 118 -21z m-1693 -8 c-80 -58 -203 -213 -191 -243 2 -7 -2 -39 -11
-72 -15 -57 -14 -207 3 -275 4 -17 2 -28 -4 -28 -14 0 -57 133 -78 238 -17 83
-17 84 6 114 12 16 42 60 68 96 84 124 161 191 217 191 17 0 15 -3 -10 -21z
m1645 -38 c33 -24 63 -61 149 -187 l63 -91 -25 -99 c-31 -120 -65 -213 -79
-213 -6 0 -8 11 -4 28 28 132 30 161 14 244 -9 49 -12 84 -7 86 25 10 -105
190 -168 233 -24 17 -43 34 -43 40 0 12 61 -13 100 -41z m-1030 15 c0 -8 7
-15 15 -15 8 0 15 -7 15 -16 0 -11 -5 -14 -16 -10 -9 3 -20 6 -25 6 -5 0 -10
8 -10 18 -1 16 -2 16 -6 0 -3 -11 -14 -18 -29 -18 -27 0 -33 19 -6 21 16 1 16
2 0 6 -31 8 -20 18 22 21 30 2 40 -1 40 -13z m400 -5 c0 -5 -4 -10 -10 -10 -5
0 -10 5 -10 10 0 6 5 10 10 10 6 0 10 -4 10 -10z m-120 -30 c0 -5 -13 -10 -30
-10 -16 0 -30 5 -30 10 0 6 14 10 30 10 17 0 30 -4 30 -10z m-279 -27 c0 -11
3 -13 6 -5 8 21 23 13 23 -13 0 -14 -5 -24 -12 -22 -6 1 -13 -7 -15 -18 -1
-11 0 -14 3 -7 9 20 22 13 22 -13 0 -20 -6 -25 -24 -25 -16 0 -24 6 -24 18 -1
16 -1 16 -11 0 -5 -10 -19 -18 -29 -18 -18 0 -20 7 -20 58 l0 58 40 2 c32 2
40 -1 41 -15z m85 -15 c-2 -14 -11 -24 -24 -26 -18 -3 -22 2 -22 22 0 21 5 26
25 26 20 0 24 -4 21 -22z m100 5 c4 -10 6 -22 5 -27 -1 -5 3 -13 10 -17 9 -5
8 -11 -4 -23 -23 -23 -27 -20 -29 22 l-1 37 -4 -36 c-4 -32 -8 -38 -35 -43
-46 -9 -88 -7 -88 4 0 6 6 10 13 11 10 0 10 2 0 6 -22 8 -14 25 10 23 46 -4
62 -1 50 11 -8 8 -7 16 5 30 21 24 57 25 68 2z m94 7 c0 -5 -13 -10 -30 -10
-16 0 -30 5 -30 10 0 6 14 10 30 10 17 0 30 -4 30 -10z m0 -30 c0 -5 -13 -10
-30 -10 -16 0 -30 5 -30 10 0 6 14 10 30 10 17 0 30 -4 30 -10z m-1351 -51
c52 -38 81 -135 49 -167 -17 -17 -54 -15 -72 4 -18 18 -20 33 -6 54 7 12 13
13 27 3 10 -6 17 -16 16 -22 -2 -6 1 -11 7 -11 23 0 10 62 -19 91 -36 35 -77
38 -116 7 -37 -29 -75 -113 -74 -163 1 -38 2 -37 9 13 8 52 50 132 70 132 15
0 12 -12 -11 -65 -18 -40 -21 -62 -17 -124 7 -114 92 -346 149 -407 23 -24 24
-34 5 -34 -21 0 -88 80 -118 142 -35 71 -66 170 -77 243 l-9 60 -1 -48 c-1
-58 29 -182 63 -258 13 -30 44 -82 70 -116 52 -71 45 -90 -17 -46 -61 42 -111
114 -140 201 -41 122 -50 178 -44 261 17 216 140 336 256 250z m1349 5 c0 -20
-6 -24 -28 -24 -22 0 -27 5 -27 24 0 18 5 23 27 24 23 0 28 -4 28 -24z m1240
-8 c39 -20 66 -53 98 -116 26 -51 28 -64 29 -170 0 -100 -4 -125 -28 -197 -37
-108 -92 -191 -152 -231 -45 -30 -75 -40 -75 -26 0 3 21 31 46 62 116 142 180
377 140 514 -27 92 -100 147 -155 117 -32 -18 -68 -86 -53 -101 7 -7 12 -3 17
12 9 28 39 22 43 -8 8 -52 -55 -72 -84 -27 -13 21 -14 30 -3 62 18 57 36 80
82 102 50 25 59 25 95 7z m-1818 -5 c12 -1 12 -3 2 -10 -19 -11 30 -97 52 -93
18 3 22 -14 5 -20 -6 -2 8 -21 32 -43 25 -22 44 -34 47 -27 2 7 8 9 13 6 6 -3
0 -15 -13 -26 -20 -19 -21 -20 -3 -14 36 13 159 46 172 46 14 0 37 -33 48 -68
6 -20 -1 -26 -77 -61 l-83 -38 32 -16 c37 -19 47 -21 38 -7 -3 6 -1 10 4 10 6
0 11 -6 11 -14 0 -17 33 -31 38 -17 2 6 8 11 13 11 6 0 8 -4 4 -9 -3 -5 -1
-12 5 -16 5 -3 10 -1 10 4 0 6 5 11 10 11 6 0 9 -6 8 -12 -2 -7 7 -14 20 -16
15 -2 22 2 22 12 0 9 -4 16 -10 16 -5 0 -10 18 -10 40 0 22 -5 40 -11 40 -6 0
-4 6 4 14 10 11 24 12 50 6 20 -4 38 -5 41 -2 11 10 6 22 -6 20 -7 -2 -12 5
-10 14 1 9 -7 22 -18 28 -21 11 -27 44 -10 55 6 3 10 12 9 18 0 9 -2 9 -6 0
-2 -7 -14 -13 -26 -13 -17 0 -19 -2 -8 -9 8 -5 11 -16 8 -25 -4 -10 2 -22 18
-32 14 -9 22 -21 19 -26 -4 -6 -10 -5 -15 3 -5 9 -9 10 -9 3 0 -7 -11 -11 -25
-10 -14 0 -24 5 -22 11 2 5 -2 16 -10 23 -20 21 -16 34 10 27 40 -11 -19 20
-125 66 -78 34 -97 46 -95 61 6 34 21 35 107 8 140 -45 135 -44 137 -5 l2 35
-99 0 c-55 0 -102 4 -105 10 -4 7 85 10 259 10 242 0 298 -5 250 -24 -9 -3
-54 -3 -100 0 -67 5 -84 4 -84 -7 0 -11 -2 -11 -10 1 -8 13 -10 12 -10 -2 0
-10 5 -18 10 -18 6 0 10 -4 10 -10 0 -5 -7 -7 -15 -4 -13 5 -14 2 -6 -19 10
-25 9 -25 -25 -20 -18 3 -34 2 -34 -3 0 -14 65 -10 83 4 12 10 16 10 20 0 4
-9 6 -7 6 4 1 11 22 22 69 36 117 36 119 36 131 14 6 -12 11 -23 11 -25 0 -3
-36 -19 -80 -38 -44 -18 -80 -35 -80 -39 0 -3 30 -16 68 -27 92 -29 119 -36
106 -26 -23 16 -25 48 -4 61 12 7 20 8 20 2 0 -5 -4 -10 -10 -10 -5 0 -10 -5
-10 -12 0 -17 57 40 91 91 22 34 26 47 17 53 -9 5 -8 8 5 8 19 0 23 15 7 23
-6 3 -5 4 2 3 7 -2 21 1 30 6 14 6 16 5 12 -7 -4 -8 -1 -15 5 -15 6 0 8 -7 5
-15 -4 -10 0 -15 12 -15 16 0 17 -2 4 -10 -13 -8 -12 -10 5 -10 15 0 16 -3 7
-12 -13 -13 -16 -29 -4 -27 19 3 25 -2 12 -11 -12 -8 -12 -10 5 -10 17 0 17
-2 5 -10 -12 -8 -13 -11 -1 -19 10 -6 10 -10 1 -16 -9 -6 -9 -10 1 -17 12 -8
12 -10 0 -15 -11 -5 -11 -7 0 -15 11 -8 11 -11 1 -15 -10 -4 -10 -8 -1 -19 9
-11 8 -14 -2 -14 -11 0 -11 -3 1 -11 12 -8 12 -12 2 -16 -10 -4 -10 -8 0 -21
11 -13 10 -15 -4 -10 -17 7 -28 -9 -28 -42 0 -11 -10 -24 -21 -31 -17 -9 -19
-13 -8 -20 20 -12 8 -16 -26 -8 -16 4 -25 7 -18 8 6 0 9 10 6 21 -3 11 0 20 6
20 6 0 11 5 11 10 0 6 -12 10 -27 10 -21 0 -24 -3 -13 -10 15 -10 10 -20 -12
-24 -7 -1 -19 -5 -26 -10 -8 -5 -26 2 -47 18 -18 14 -40 26 -47 25 -7 0 -3 -5
10 -11 25 -12 28 -27 10 -48 -7 -8 -4 -7 8 3 19 16 22 16 34 2 11 -13 11 -16
-1 -13 -9 2 -13 -4 -11 -14 2 -13 -2 -16 -15 -11 -16 6 -17 5 -3 -12 14 -17
13 -17 -9 -10 -20 6 -23 4 -18 -9 4 -11 3 -15 -4 -11 -15 10 -39 -14 -32 -32
5 -12 2 -15 -10 -10 -11 4 -17 1 -17 -8 0 -9 -6 -12 -15 -9 -11 5 -14 2 -9
-12 6 -15 4 -16 -6 -7 -9 8 -20 6 -46 -9 -19 -11 -33 -23 -30 -26 3 -3 12 1
21 8 8 7 15 8 15 2 0 -14 -24 -22 -50 -15 -16 4 -23 0 -27 -16 -6 -23 -23 -29
-24 -8 0 6 -4 3 -9 -8 -5 -11 -9 -14 -9 -7 -1 15 -52 5 -63 -12 -5 -7 -8 -3
-9 9 0 11 -3 14 -6 8 -2 -7 -9 -13 -15 -13 -6 0 -8 7 -4 15 3 8 1 15 -4 15 -6
0 -10 -5 -10 -11 0 -5 -5 -7 -10 -4 -6 4 -8 10 -6 14 3 4 -4 12 -15 19 -11 7
-19 8 -19 2 0 -5 -5 -10 -11 -10 -6 0 -9 7 -5 15 3 8 1 15 -4 15 -6 0 -10 -5
-10 -11 0 -5 -5 -7 -10 -4 -6 4 -8 10 -5 15 8 13 -21 31 -41 24 -14 -4 -15 -3
-5 4 15 11 -2 27 -19 17 -6 -3 -7 1 -4 9 6 16 -10 23 -19 9 -2 -5 -2 -3 -1 4
1 6 -21 34 -50 62 -74 69 -58 73 18 5 52 -48 136 -103 136 -90 0 2 -19 16 -42
29 -61 37 -129 99 -133 122 -2 11 -4 34 -4 51 -1 17 -12 48 -26 68 -13 20 -20
36 -16 36 16 0 61 -61 61 -81 0 -23 7 -23 40 -4 l25 15 -25 -5 c-22 -5 -28 0
-50 40 -13 25 -31 45 -40 45 -8 0 -34 19 -58 41 -23 23 -46 39 -49 35 -4 -4
-1 -11 7 -16 13 -8 13 -10 0 -10 -21 0 -23 -39 -4 -47 12 -4 13 -8 3 -14 -10
-6 -10 -16 -1 -45 9 -30 9 -40 -1 -46 -7 -4 -7 -8 -2 -8 20 1 47 28 35 35 -17
11 5 29 25 21 9 -3 22 -20 30 -38 12 -28 14 -29 15 -10 0 24 -32 62 -54 62 -8
0 -17 7 -20 16 -9 24 -7 36 4 29 6 -4 8 -11 5 -16 -4 -5 5 -9 20 -9 32 0 65
-51 65 -102 0 -44 -9 -51 -44 -35 -17 8 -26 20 -27 37 -1 19 -3 20 -6 7 -3
-13 -11 -17 -24 -14 -10 3 -19 2 -19 -3 0 -4 10 -10 23 -14 18 -5 20 -8 7 -16
-10 -6 -11 -10 -2 -10 6 0 12 -5 12 -11 0 -5 -5 -7 -12 -3 -7 5 -9 2 -5 -8 4
-11 -1 -18 -13 -21 -11 -3 -18 0 -17 7 1 6 -3 10 -9 9 -7 -1 -10 6 -7 17 3 12
-1 22 -11 26 -9 3 -16 15 -16 25 0 21 -15 26 -24 7 -3 -7 -3 -3 0 10 3 14 1
22 -7 22 -7 0 -9 3 -6 7 4 3 2 12 -4 20 -9 10 -8 13 1 13 10 0 10 3 0 15 -10
12 -10 15 0 15 10 0 10 3 0 15 -10 12 -10 15 0 15 10 0 10 3 0 15 -10 12 -10
15 0 15 10 0 10 3 0 15 -10 12 -10 15 0 15 7 0 10 7 6 15 -3 8 0 15 6 15 7 0
6 5 -2 15 -10 12 -9 15 5 15 14 0 15 3 5 15 -10 12 -9 15 4 15 10 0 14 5 11
10 -3 6 -1 10 5 10 7 0 10 7 6 15 -3 8 -1 15 4 15 5 0 7 6 4 14 -4 10 0 13 13
11 10 -2 25 -4 33 -4z m135 -46 c0 -25 -4 -30 -28 -33 -37 -5 -62 20 -47 48 9
16 19 20 43 18 28 -3 32 -7 32 -33z m687 20 c12 0 21 -15 9 -15 -8 0 -10 -7
-6 -19 7 -22 -31 -37 -52 -19 -28 23 2 79 32 60 5 -4 13 -7 17 -7z m-1597 -24
c3 -6 -7 -16 -22 -23 -45 -21 -55 -52 -49 -148 9 -130 63 -267 152 -383 67
-86 69 -101 14 -72 -65 33 -160 196 -197 336 -39 150 -3 299 72 299 13 0 26
-4 30 -9z m819 -17 c9 -24 7 -27 -9 -10 -17 17 -19 26 -6 26 5 0 12 -7 15 -16z
m1723 -9 c25 -18 53 -100 53 -154 -1 -97 -87 -317 -158 -401 -32 -38 -97 -79
-108 -68 -3 4 16 35 43 70 100 126 153 236 174 365 15 90 1 146 -42 168 -31
16 -31 35 -1 35 10 0 27 -7 39 -15z m81 -53 c35 -62 39 -132 13 -232 -39 -151
-119 -293 -182 -325 -45 -24 -47 -11 -6 34 58 64 117 193 151 327 22 86 20
130 -9 192 -22 47 -23 53 -8 50 10 -2 28 -22 41 -46z m-1724 22 c16 -6 23 -34
8 -34 -10 0 -32 22 -32 32 0 10 3 10 24 2z m646 -29 c-18 -19 -26 -22 -32 -13
-9 14 17 38 41 38 10 0 8 -7 -9 -25z m-680 5 c0 -5 -5 -10 -11 -10 -5 0 -7 5
-4 10 3 6 8 10 11 10 2 0 4 -4 4 -10z m-760 -150 c59 -155 83 -193 194 -307
68 -70 80 -97 33 -76 -65 30 -167 154 -247 303 l-52 95 6 -48 c4 -31 2 -46 -4
-42 -15 9 -46 75 -55 113 -6 30 -4 33 27 47 18 8 39 13 47 12 9 -1 30 -43 51
-97z m2355 66 c19 -8 35 -21 35 -29 0 -28 -32 -106 -51 -123 -19 -17 -19 -16
-13 32 l6 49 -42 -75 c-51 -91 -68 -115 -142 -206 -57 -69 -138 -127 -154
-111 -5 4 32 47 81 96 95 96 141 163 187 281 28 70 45 100 55 100 2 0 19 -7
38 -14z m-2473 -84 c39 -130 159 -278 280 -345 37 -21 106 -53 155 -72 48 -19
79 -35 68 -35 -11 0 -57 -3 -103 -6 -79 -4 -84 -3 -125 25 -60 41 -178 160
-215 216 -41 62 -92 195 -92 240 0 52 13 43 32 -23z m2523 -28 c-17 -117 -149
-299 -290 -399 l-62 -44 -102 6 c-104 6 -112 13 -36 34 22 6 81 31 132 55 149
71 277 209 335 359 24 63 34 59 23 -11z m-1425 -9 c0 -8 -6 -15 -14 -15 -17 0
-28 14 -19 24 12 12 33 6 33 -9z m680 -9 c0 -3 -4 -8 -10 -11 -5 -3 -10 -1
-10 4 0 6 5 11 10 11 6 0 10 -2 10 -4z m-680 -36 c0 -5 -2 -10 -4 -10 -3 0 -8
5 -11 10 -3 6 -1 10 4 10 6 0 11 -4 11 -10z m-179 -271 c-1 -79 -3 -144 -5
-146 -1 -1 -19 0 -40 4 l-39 6 7 60 c3 33 6 112 6 176 l0 116 37 -37 36 -36
-2 -143z m671 -1 l-4 -148 -40 0 -41 0 6 127 c7 126 7 127 39 160 22 23 34 29
38 21 3 -7 4 -79 2 -160z m-2522 58 c0 -66 4 -96 13 -99 6 -3 -8 -6 -33 -6
l-45 -1 3 100 3 100 30 0 29 0 0 -94z m95 73 c-9 -29 2 -69 20 -69 14 0 20 28
16 73 -3 21 22 22 44 1 21 -22 15 -56 -12 -69 l-21 -11 21 -9 c48 -22 27 -95
-27 -95 -15 0 -17 3 -8 9 8 5 12 23 10 47 -2 31 -7 39 -23 39 -16 0 -21 -8
-23 -39 -2 -24 2 -42 10 -47 9 -6 7 -9 -8 -9 -54 0 -75 73 -27 95 l21 9 -21
11 c-28 14 -33 42 -11 66 24 26 47 25 39 -2z m185 0 c-7 -12 -10 -54 -8 -100
2 -43 1 -79 -2 -79 -3 0 -15 7 -27 15 -44 31 -38 137 10 170 30 21 40 19 27
-6z m64 15 c24 -9 21 -54 -4 -54 -15 0 -19 6 -17 30 1 16 3 30 4 30 1 0 8 -3
17 -6z m116 -9 c-17 -21 -24 -153 -9 -171 9 -11 8 -14 -3 -14 -33 0 -51 27
-56 81 -4 49 -1 59 23 87 15 18 34 32 42 32 13 0 13 -3 3 -15z m68 3 c22 -22
14 -48 -13 -48 -27 0 -28 3 -19 38 7 25 15 27 32 10z m3298 -3 c-3 -8 -1 -15
4 -15 6 0 10 -6 10 -14 0 -14 -34 -28 -44 -18 -10 9 -6 38 6 50 17 17 31 15
24 -3z m87 -6 c17 -27 -1 -62 -51 -99 l-47 -35 38 -3 c27 -2 45 2 59 15 19 17
20 17 16 -17 l-3 -35 -67 -3 c-83 -4 -88 9 -27 71 36 38 40 46 37 85 -3 37 -1
42 16 40 10 -2 23 -10 29 -19z m89 -57 c-3 -49 0 -87 7 -100 16 -30 -5 -30
-36 0 -32 30 -33 123 -3 156 12 12 24 22 29 22 4 0 6 -35 3 -78z m78 68 c20
-11 43 -77 36 -101 -2 -8 -7 -26 -10 -40 -3 -14 -17 -31 -31 -37 -34 -16 -40
-15 -25 3 8 10 11 42 9 100 -2 47 -3 85 -1 85 2 0 12 -5 22 -10z m97 -20 c2
-24 -2 -30 -17 -30 -23 0 -27 29 -8 48 18 18 23 15 25 -18z m77 14 c27 -26 18
-50 -36 -98 l-53 -46 33 0 c18 0 42 5 53 10 17 10 19 7 19 -20 l0 -30 -65 0
c-80 0 -84 13 -24 77 36 39 40 49 37 84 -4 42 9 51 36 23z m161 -2 c-3 -8 -5
-18 -5 -24 0 -6 -18 -7 -49 -3 -49 7 -50 6 -54 -22 -3 -18 -5 -11 -6 20 l-1
47 60 -2 c45 -2 59 -6 55 -16z m-4067 -68 c28 -19 29 -67 2 -94 -27 -27 -55
-27 -40 -1 5 11 10 32 10 46 0 14 -5 35 -10 46 -13 24 6 26 38 3z m190 -11
c20 -27 14 -60 -14 -82 -15 -12 -29 -21 -33 -21 -3 0 -4 23 -3 50 3 32 -1 57
-10 67 -12 15 -10 16 17 9 17 -4 36 -14 43 -23z m3872 -3 c21 -21 25 -47 12
-66 -6 -10 -45 -34 -54 -34 -2 0 -1 23 1 51 2 36 -1 54 -10 60 -10 6 -8 9 9 9
12 0 31 -9 42 -20z m-2412 -20 c33 -20 33 -20 30 -93 l-3 -72 -44 -3 -44 -3 6
38 c4 21 7 64 7 96 0 31 3 57 8 57 4 0 22 -9 40 -20z m372 -85 l0 -95 -40 0
-40 0 0 75 c0 74 0 76 33 95 17 11 35 20 40 20 4 0 7 -43 7 -95z m1959 61 c9
-10 9 -16 1 -21 -6 -4 -9 -14 -6 -22 8 -19 -14 -12 -27 9 -11 17 -3 48 11 48
5 0 15 -6 21 -14z m-2129 -101 l0 -55 -40 0 -40 0 0 55 0 55 40 0 40 0 0 -55z
m-1124 -2 l49 -28 250 0 c235 0 254 -2 314 -23 186 -67 338 -178 426 -310 43
-65 23 -61 -40 6 -68 73 -163 136 -258 169 -80 28 -246 51 -256 36 -3 -6 -29
-13 -57 -16 -95 -11 -157 -66 -169 -151 -9 -57 24 -133 76 -181 22 -19 39 -37
39 -39 0 -16 -88 35 -114 66 -18 21 -37 38 -43 38 -28 0 -44 119 -24 173 13
34 71 98 82 91 6 -3 15 -1 22 4 7 5 26 12 42 16 163 38 160 36 40 28 -239 -16
-286 -9 -368 52 -34 25 -81 96 -63 96 2 0 25 -12 52 -27z m2244 2 c0 -25 -65
-89 -116 -114 -53 -27 -100 -30 -304 -19 -69 4 -111 5 -95 2 17 -2 48 -9 70
-15 22 -6 50 -12 63 -14 12 -1 32 -11 44 -21 12 -11 18 -13 14 -6 -12 20 9 13
31 -10 35 -39 57 -91 57 -138 0 -47 -22 -106 -39 -103 -6 1 -18 -12 -29 -28
-17 -27 -100 -79 -125 -79 -5 0 14 24 43 53 79 79 95 164 47 243 -22 36 -96
74 -144 74 -18 0 -38 5 -45 12 -18 18 -190 -7 -280 -42 -96 -37 -161 -80 -240
-161 -34 -34 -65 -60 -68 -56 -10 10 57 99 121 162 76 73 201 149 315 189 l85
31 245 0 245 0 50 27 c28 14 51 27 53 27 1 1 2 -6 2 -14z m-2402 -96 c25 -11
82 -25 127 -30 44 -6 84 -14 88 -18 5 -5 -3 -25 -17 -46 -14 -21 -26 -42 -26
-46 0 -5 -15 -9 -32 -9 -59 0 -112 21 -152 61 -43 44 -43 62 1 32 46 -31 81
-43 130 -43 57 0 52 6 -21 25 -117 31 -226 101 -226 146 0 19 4 18 41 -16 22
-20 61 -45 87 -56z m2642 60 c0 -20 -65 -74 -121 -102 -30 -14 -85 -33 -122
-43 -48 -12 -65 -20 -58 -27 14 -14 101 7 160 39 24 13 46 22 49 19 12 -12
-64 -75 -106 -90 -78 -26 -96 -22 -131 35 -19 30 -26 52 -20 56 6 3 38 8 72
11 34 3 82 12 107 20 46 14 140 72 140 86 0 4 7 7 15 7 8 0 15 -5 15 -11z
m-1050 -56 c0 -5 -23 -20 -50 -35 l-50 -28 -214 0 c-150 0 -223 4 -243 12 -25
12 -16 13 82 18 l110 5 -137 5 c-89 4 -142 10 -150 18 -9 9 58 12 320 12 183
0 332 -3 332 -7z m-2101 -80 c9 -28 36 -80 60 -116 75 -116 96 -200 59 -244
-10 -12 -15 -11 -30 9 l-18 23 10 -29 c10 -27 89 -145 131 -196 24 -29 23 -25
-17 55 -26 54 -29 70 -29 155 0 96 19 184 48 224 13 18 14 18 34 -3 36 -39 65
-130 72 -226 l6 -90 26 70 c15 42 31 70 40 70 29 0 62 -94 67 -188 l5 -88 18
31 c35 57 65 50 97 -24 36 -82 44 -131 41 -254 -2 -66 -8 -124 -12 -128 -14
-14 -25 16 -32 85 -10 108 -37 265 -46 276 -23 25 0 -173 38 -320 24 -95 28
-103 81 -157 31 -32 57 -56 59 -54 2 2 -5 19 -17 38 -34 59 -50 128 -50 226 0
98 12 144 48 175 19 18 21 18 41 -4 47 -51 65 -124 69 -278 2 -86 0 -147 -6
-153 -15 -15 -28 18 -36 90 -12 124 -40 272 -49 263 -13 -13 9 -174 41 -310
l27 -114 75 -58 c41 -33 79 -59 83 -59 5 0 -10 21 -31 48 -77 91 -87 122 -85
256 2 92 5 123 17 135 14 13 19 12 44 -12 45 -43 92 -130 107 -198 10 -47 14
-55 14 -31 1 31 35 112 47 112 33 0 94 -86 130 -183 l23 -62 0 53 c1 62 24
115 49 110 28 -5 107 -114 131 -181 28 -80 43 -259 20 -240 -8 7 -25 43 -38
80 -44 129 -94 253 -103 253 -5 0 -7 -8 -4 -17 3 -10 15 -49 27 -88 18 -58 40
-108 117 -269 3 -5 -5 -7 -17 -3 -11 3 -21 1 -21 -4 0 -5 -18 -9 -39 -9 -64 0
-182 -19 -246 -40 l-60 -19 75 6 c41 3 118 14 170 24 135 26 149 1 30 -54 -56
-25 -200 -33 -285 -15 -48 11 -61 17 -63 34 -5 36 124 109 218 123 l45 7 -32
17 c-18 9 -50 17 -73 17 -53 0 -220 -25 -293 -45 -32 -8 -60 -15 -62 -15 -3 0
-5 -4 -5 -9 0 -12 35 -7 210 30 77 16 139 24 144 19 12 -12 -116 -74 -195 -94
-73 -18 -184 -21 -223 -6 -37 14 -32 36 17 85 54 55 146 85 264 88 46 1 79 4
75 7 -4 4 -38 28 -76 55 -39 27 -94 68 -124 93 -43 35 -56 41 -68 32 -7 -7
-21 -9 -30 -6 -28 11 -264 36 -336 36 -38 0 -68 -4 -68 -9 0 -10 67 -20 190
-27 145 -8 184 -14 171 -27 -32 -32 -323 -48 -417 -23 -63 17 -154 65 -154 81
0 7 28 25 63 41 60 28 68 29 217 29 134 0 165 -3 230 -23 41 -13 91 -33 110
-43 22 -13 2 11 -57 66 -51 47 -130 127 -176 177 -67 72 -84 85 -80 64 3 -14
1 -26 -5 -26 -5 0 -38 23 -73 51 -73 58 -123 85 -227 123 -90 32 -115 33 -46
2 73 -34 246 -137 240 -143 -11 -11 -131 -2 -191 13 -88 23 -171 71 -245 142
-62 59 -64 63 -46 77 24 18 147 20 246 5 80 -13 175 -58 227 -108 21 -20 52
-48 68 -62 l29 -25 -32 40 c-92 115 -114 146 -110 151 3 2 24 -20 48 -51 24
-31 45 -54 47 -52 2 2 -6 26 -18 53 -12 27 -24 77 -26 112 -5 51 -8 59 -18 46
-9 -13 -15 0 -33 77 -32 139 -32 140 -27 63 5 -70 14 -111 41 -171 19 -42 18
-61 -3 -66 -11 -2 -29 8 -45 27 l-28 31 22 -42 c13 -23 19 -45 16 -49 -4 -4
-42 27 -83 69 -66 66 -192 167 -210 167 -3 0 34 -33 82 -74 111 -92 143 -126
120 -126 -52 0 -197 75 -274 143 -85 74 -142 177 -99 177 23 0 225 -69 254
-87 15 -9 47 -35 71 -57 l44 -41 -31 44 c-17 24 -49 54 -69 65 -28 15 -46 37
-68 81 -29 57 -30 66 -30 190 0 131 6 170 26 163 6 -2 18 -27 28 -55z m3629
-98 c-4 -89 -11 -142 -22 -170 -20 -47 -69 -101 -100 -109 -11 -3 -39 -32 -60
-63 l-39 -58 54 51 c62 60 92 76 208 115 78 27 141 37 141 23 0 -32 -101 -147
-175 -198 -77 -55 -225 -118 -225 -97 0 7 158 143 215 186 11 8 15 15 8 15
-22 0 -179 -122 -240 -188 -34 -37 -65 -64 -68 -60 -4 4 5 28 20 54 15 26 22
44 16 40 -22 -14 -10 6 58 102 38 53 72 108 75 122 6 24 6 23 -9 -3 -39 -69
-63 48 -26 128 10 22 36 65 57 96 36 51 62 102 78 153 5 16 9 16 22 5 14 -12
16 -32 12 -144z m-2728 105 c0 -5 -16 -30 -35 -55 -19 -25 -37 -62 -40 -83 -4
-20 -10 -48 -14 -62 -8 -27 -83 -90 -107 -90 -20 0 -18 56 5 105 20 44 54 83
94 110 17 11 27 26 27 41 0 13 -2 24 -5 24 -25 0 -69 -40 -106 -94 -24 -36
-48 -66 -53 -66 -15 0 3 63 30 103 36 55 78 77 147 77 31 0 57 -4 57 -10z
m1822 0 c66 -19 123 -81 128 -140 4 -47 0 -45 -41 17 -38 59 -81 103 -101 103
-5 0 -11 -7 -15 -16 -4 -11 10 -31 45 -63 56 -49 91 -116 92 -168 0 -18 -2
-33 -4 -33 -9 0 -95 52 -105 64 -6 7 -15 37 -21 66 -10 51 -49 132 -70 145
-17 10 -11 23 13 28 38 7 41 7 79 -3z m-1347 -25 c80 -25 170 -74 220 -122 26
-24 45 -47 42 -50 -3 -3 -41 18 -84 46 -96 64 -192 95 -288 94 -127 -1 -195
-34 -236 -116 -18 -35 -19 -45 -9 -85 14 -55 7 -64 -16 -20 -39 71 -15 208 38
221 13 3 48 15 78 26 67 25 183 27 255 6z m995 -4 c108 -28 139 -45 155 -84 8
-20 15 -56 15 -80 0 -45 -26 -108 -48 -115 -11 -4 -12 0 -2 18 7 14 10 45 8
77 -4 41 -11 60 -33 83 -47 49 -98 63 -223 59 -105 -4 -112 -6 -193 -46 -46
-23 -97 -54 -114 -68 -26 -22 -20 -20 50 13 75 35 86 37 175 37 76 0 95 -3 95
-14 0 -8 -40 -39 -90 -69 -49 -30 -120 -79 -157 -109 -38 -29 -68 -48 -68 -40
0 20 65 92 106 117 19 12 33 25 30 28 -3 3 -31 -12 -62 -32 -59 -39 -80 -41
-48 -4 l19 22 -29 -18 c-20 -13 -31 -15 -35 -7 -11 16 -100 -46 -123 -86 -26
-43 -42 -42 -74 6 -29 45 -97 96 -114 86 -6 -4 -22 0 -35 9 -33 22 -42 20 -20
-4 28 -31 11 -35 -27 -7 -35 26 -92 57 -105 57 -4 0 10 -12 32 -26 22 -15 53
-39 68 -53 30 -28 72 -89 65 -96 -2 -2 -25 15 -51 39 -45 43 -141 110 -224
157 -55 31 -56 54 -3 63 128 20 346 -88 437 -218 l20 -29 22 37 c13 20 42 52
66 72 24 19 42 41 39 48 -7 17 78 91 141 124 111 56 240 77 335 53z m994 -103
c20 -31 46 -149 46 -206 0 -57 -20 -125 -54 -187 -29 -51 -31 -59 -15 -49 21
13 -8 -30 -96 -139 -48 -60 -90 -106 -92 -103 -3 3 -1 12 6 20 9 11 9 15 0 18
-9 3 -6 21 9 68 17 50 22 85 21 164 -2 110 -2 109 -20 -42 -12 -112 -26 -127
-46 -51 l-11 44 -1 -75 c-1 -75 -23 -186 -42 -204 -5 -6 -9 -15 -9 -20 0 -6
20 10 45 34 25 24 45 41 45 36 0 -4 34 24 75 63 120 111 201 141 381 141 143
0 153 -10 75 -83 -67 -63 -146 -112 -220 -137 -67 -22 -221 -39 -221 -24 0 11
120 83 212 127 37 18 67 35 67 39 1 9 -118 -36 -198 -75 -35 -18 -85 -51 -112
-74 -55 -50 -85 -57 -75 -17 5 20 -9 8 -59 -48 -36 -41 -79 -84 -95 -97 -17
-12 -30 -26 -30 -32 0 -5 15 1 33 14 71 54 171 108 225 122 77 21 376 33 386
16 14 -22 -25 -50 -162 -118 l-134 -67 -130 -4 c-101 -4 -130 -2 -126 8 4 14
87 48 198 81 48 15 67 24 53 27 -34 5 -159 -36 -247 -81 -74 -38 -80 -39 -92
-22 -12 16 -18 13 -74 -41 -34 -33 -68 -63 -76 -67 -20 -12 -18 15 11 125 22
85 45 232 45 283 -1 16 -2 17 -9 5 -11 -18 -26 -99 -46 -240 -25 -171 -49
-159 -50 25 0 128 27 235 73 286 l27 30 28 -29 c65 -68 51 -298 -25 -405 -17
-24 -7 -18 44 26 41 36 68 68 71 85 4 15 18 70 32 122 14 52 27 135 30 185 l4
90 -14 -58 c-9 -32 -23 -110 -33 -174 -9 -64 -22 -118 -28 -120 -27 -9 -33
184 -8 280 16 62 56 151 73 161 13 8 47 -23 66 -59 15 -29 15 -29 15 46 0 114
43 233 77 211 6 -4 23 -41 37 -82 l25 -75 1 76 c0 80 25 177 62 237 23 38 33
40 52 10z m-1278 -319 c14 -14 25 -38 26 -59 l3 -35 -60 -7 c-90 -12 -674 -13
-685 -2 -13 13 8 79 33 101 17 16 51 19 291 24 357 7 362 7 392 -22z m139
-166 c42 -43 67 -101 73 -170 5 -63 5 -63 -22 -63 -23 0 -26 4 -26 33 0 57
-28 134 -58 158 -25 20 -35 21 -148 16 -67 -3 -130 -10 -140 -16 -16 -9 -11
-11 26 -11 25 -1 54 -5 65 -9 17 -7 11 -11 -30 -23 l-50 -15 55 -8 55 -8 -50
-15 c-45 -14 -48 -16 -25 -23 14 -4 37 -7 53 -8 48 -2 29 -18 -30 -26 -65 -8
-58 -16 30 -35 100 -23 78 -30 -148 -51 -78 -7 -191 -9 -285 -5 -160 7 -382
25 -390 33 -7 7 28 162 46 199 31 65 42 66 363 60 157 -4 322 -2 366 2 44 5
117 10 161 11 76 1 83 -1 109 -26z m505 -252 c5 -11 10 -70 10 -131 0 -128 -9
-157 -76 -242 -25 -32 -38 -55 -30 -52 9 3 16 4 16 1 0 -9 -112 -87 -124 -87
-6 0 -3 7 7 14 9 7 17 21 17 30 0 9 18 42 39 74 38 55 91 190 91 229 0 10 -18
-22 -39 -72 -77 -182 -86 -188 -79 -52 6 105 27 164 92 255 40 56 59 64 76 33z
m-2407 -46 c79 -17 190 -73 250 -126 35 -31 39 -38 25 -44 -11 -5 -44 6 -88
29 -99 52 -270 101 -270 78 0 -5 37 -19 83 -30 95 -23 201 -67 193 -81 -3 -5
-60 -7 -133 -3 -139 6 -168 14 -318 95 -89 48 -120 71 -111 86 11 17 285 14
369 -4z m2206 -101 c52 -66 9 -261 -83 -378 l-30 -39 44 25 c43 24 50 25 141
17 160 -12 256 -55 294 -130 14 -27 14 -29 -7 -41 -34 -18 -181 -15 -252 6
-72 21 -176 72 -176 86 0 14 26 12 90 -5 58 -16 228 -45 257 -45 15 1 16 2 3
9 -31 18 -199 51 -290 57 -84 6 -101 4 -134 -13 l-39 -20 52 -6 c66 -8 161
-50 198 -89 27 -28 27 -30 10 -43 -51 -37 -243 -43 -338 -10 -47 16 -88 49
-76 62 4 3 60 -1 124 -10 184 -26 233 -30 203 -17 -39 17 -157 40 -205 40 -39
0 -144 17 -153 25 -2 2 14 38 36 81 60 119 126 325 93 289 -4 -6 -27 -62 -50
-125 -23 -63 -49 -134 -57 -157 -24 -66 -34 -61 -34 16 0 87 15 162 45 221 24
48 101 140 116 140 20 0 49 -66 50 -115 l0 -50 19 58 c24 76 96 187 121 187 4
0 17 -12 28 -26z m808 -109 c59 -18 100 -46 89 -64 -13 -20 -103 -61 -172 -77
-71 -16 -216 -12 -328 10 -76 15 -87 36 -19 36 54 0 255 18 291 26 13 2 21 8
18 12 -6 11 -270 -7 -346 -23 -55 -11 -67 -11 -74 0 -8 11 -24 3 -73 -37 -35
-28 -66 -48 -69 -45 -8 7 126 108 136 102 4 -3 23 3 42 14 38 22 129 50 203
62 71 11 241 2 302 -16z m-334 -161 c51 -17 117 -72 117 -96 0 -30 -59 -43
-185 -42 -100 1 -131 5 -189 26 -102 36 -100 53 5 45 204 -16 284 -18 269 -9
-23 15 -263 34 -330 26 -39 -4 -60 -3 -60 4 0 16 66 51 118 61 62 13 196 5
255 -15z m-2120 -24 c26 -13 47 -27 47 -30 0 -4 -75 -10 -167 -13 -187 -7
-295 -24 -165 -26 41 -1 116 4 168 10 96 12 143 7 114 -11 -8 -5 -51 -22 -95
-37 -66 -22 -97 -27 -180 -27 -70 1 -111 6 -137 17 -43 18 -44 19 -23 50 45
69 132 97 285 94 88 -2 113 -6 153 -27z m1295 -252 c-3 -7 -58 -25 -124 -41
-187 -44 -175 -39 -129 -48 22 -5 71 -11 108 -15 45 -4 67 -10 64 -17 -5 -14
-60 -13 -205 4 -84 10 -122 10 -205 -2 -121 -16 -220 -18 -227 -4 -3 6 30 13
84 18 49 4 96 11 103 16 8 4 -39 19 -117 36 -71 15 -138 34 -148 42 -15 13
-14 14 13 8 259 -57 323 -67 400 -61 74 5 269 43 340 65 42 13 47 13 43 -1z"/>
<path d="M3687 6781 c-11 -19 -14 -32 -7 -36 10 -6 11 -4 14 24 1 17 26 28 26
11 0 -6 5 -8 10 -5 6 4 5 12 -4 21 -19 19 -19 19 -39 -15z"/>
<path d="M3780 6741 c0 -6 5 -13 10 -16 6 -3 10 1 10 9 0 9 -4 16 -10 16 -5 0
-10 -4 -10 -9z"/>
<path d="M3816 6735 c-3 -8 -1 -15 4 -15 6 0 10 7 10 15 0 8 -2 15 -4 15 -2 0
-6 -7 -10 -15z"/>
<path d="M3840 6735 c0 -8 5 -15 10 -15 6 0 10 7 10 15 0 8 -4 15 -10 15 -5 0
-10 -7 -10 -15z"/>
<path d="M3820 6631 c0 -5 -3 -16 -6 -24 -4 -12 0 -14 15 -10 24 6 23 5 15 27
-7 17 -24 22 -24 7z"/>
<path d="M3810 6520 c-17 -10 -6 -25 18 -25 17 0 32 13 32 28 0 10 -32 9 -50
-3z"/>
<path d="M3886 6502 c-2 -4 -1 -14 4 -22 7 -11 9 -9 7 8 -1 24 -3 26 -11 14z"/>
<path d="M3810 6382 c0 -6 -8 -13 -17 -15 -16 -4 -16 -5 -1 -6 18 -1 34 16 24
26 -3 4 -6 1 -6 -5z"/>
<path d="M2422 6330 c0 -14 2 -19 5 -12 2 6 2 18 0 25 -3 6 -5 1 -5 -13z"/>
<path d="M5272 6280 c0 -14 2 -19 5 -12 2 6 2 18 0 25 -3 6 -5 1 -5 -13z"/>
<path d="M3690 6311 c0 -5 -8 -12 -17 -14 -14 -4 -12 -5 5 -6 13 -1 22 5 22
14 0 8 -2 15 -5 15 -3 0 -5 -4 -5 -9z"/>
<path d="M3617 6299 c7 -7 15 -10 18 -7 3 3 -2 9 -12 12 -14 6 -15 5 -6 -5z"/>
<path d="M3980 6305 c0 -8 8 -15 18 -15 14 0 14 2 3 9 -11 7 -4 11 25 14 l39
4 -42 1 c-32 2 -43 -2 -43 -13z"/>
<path d="M3650 6176 c0 -8 -6 -17 -12 -19 -8 -3 -6 -6 5 -6 11 -1 17 6 17 19
0 11 -2 20 -5 20 -3 0 -5 -6 -5 -14z"/>
<path d="M3610 6135 c0 -8 4 -15 10 -15 5 0 7 7 4 15 -4 8 -8 15 -10 15 -2 0
-4 -7 -4 -15z"/>
<path d="M3768 6113 c6 -2 18 -2 25 0 6 3 1 5 -13 5 -14 0 -19 -2 -12 -5z"/>
<path d="M3580 6000 c8 -5 20 -10 25 -10 6 0 3 5 -5 10 -8 5 -19 10 -25 10 -5
0 -3 -5 5 -10z"/>
<path d="M4050 5990 c-8 -5 -10 -10 -5 -10 6 0 17 5 25 10 8 5 11 10 5 10 -5
0 -17 -5 -25 -10z"/>
<path d="M3680 5965 c0 -8 73 -36 78 -30 3 3 3 5 0 5 -3 0 -22 7 -42 15 -20 8
-36 13 -36 10z"/>
<path d="M3967 5959 c-10 -6 -26 -8 -35 -4 -13 5 -13 2 3 -13 18 -18 21 -19
32 -4 7 9 19 19 25 24 19 12 -4 9 -25 -3z"/>
<path d="M4276 5935 c-3 -8 -2 -22 1 -32 4 -11 3 -14 -5 -9 -7 4 -24 -2 -39
-14 -17 -13 -33 -18 -47 -14 -12 4 -18 3 -14 -1 4 -5 2 -15 -5 -23 -10 -13 -9
-14 1 -8 7 4 26 11 43 16 l30 9 -30 -35 c-17 -19 -31 -38 -31 -42 0 -4 12 8
26 26 14 17 32 32 41 32 10 0 14 6 11 18 -4 12 2 17 19 18 19 2 22 -1 12 -12
-9 -11 -8 -14 5 -14 12 0 16 9 16 34 0 57 -20 87 -34 51z"/>
<path d="M3917 5855 c-4 -8 -15 -15 -25 -15 -17 0 -19 -9 -21 -66 -1 -36 -3
-71 -4 -77 -3 -14 28 -20 58 -13 17 4 22 11 18 22 -5 13 -3 14 13 4 15 -9 28
-7 67 9 27 12 56 21 65 21 15 1 15 2 -1 11 -9 5 -22 7 -29 3 -6 -4 -8 -3 -5 3
3 5 -27 25 -69 43 -61 27 -72 35 -63 46 7 8 10 17 7 20 -3 3 -8 -2 -11 -11z
m78 -79 c18 -13 18 -14 -3 -25 -32 -17 -42 -13 -42 14 0 28 17 32 45 11z"/>
<path d="M4274 5832 c3 -5 -2 -21 -10 -37 -8 -16 -12 -26 -8 -22 4 4 16 -1 27
-10 19 -18 19 -17 15 20 -2 20 0 37 4 37 4 0 8 5 8 10 0 6 -9 10 -21 10 -11 0
-18 -4 -15 -8z"/>
<path d="M3643 5820 c-34 -14 -28 -21 7 -9 17 6 30 13 30 15 0 6 -12 4 -37 -6z"/>
<path d="M4020 5820 c8 -5 20 -10 25 -10 6 0 3 5 -5 10 -8 5 -19 10 -25 10 -5
0 -3 -5 5 -10z"/>
<path d="M4145 5809 c-4 -6 -5 -12 -2 -15 2 -3 7 2 10 11 7 17 1 20 -8 4z"/>
<path d="M4216 5788 c-9 -12 -16 -32 -15 -43 0 -14 3 -11 10 10 5 16 16 36 26
42 9 7 12 13 5 13 -6 0 -18 -10 -26 -22z"/>
<path d="M4100 5785 c14 -8 30 -14 35 -14 6 0 -1 6 -15 14 -14 8 -29 14 -35
14 -5 0 1 -6 15 -14z"/>
<path d="M3520 5735 c0 -9 6 -12 15 -9 8 4 15 7 15 9 0 2 -7 5 -15 9 -9 3 -15
0 -15 -9z"/>
<path d="M3808 5698 c-8 -19 -1 -28 24 -28 10 0 18 7 18 15 0 8 -5 15 -11 15
-5 0 -7 -4 -4 -10 3 -5 2 -10 -4 -10 -5 0 -11 8 -13 18 -3 15 -4 15 -10 0z"/>
<path d="M3945 5565 c-25 -12 -26 -14 -5 -9 14 4 29 10 35 15 12 12 5 11 -30
-6z"/>
<path d="M3710 5535 c14 -8 30 -14 35 -14 6 0 -1 6 -15 14 -14 8 -29 14 -35
14 -5 0 1 -6 15 -14z"/>
<path d="M3798 5503 c7 -3 16 -2 19 1 4 3 -2 6 -13 5 -11 0 -14 -3 -6 -6z"/>
<path d="M3278 5233 c7 -3 16 -2 19 1 4 3 -2 6 -13 5 -11 0 -14 -3 -6 -6z"/>
<path d="M2989 5153 c-13 -16 -12 -17 4 -4 16 13 21 21 13 21 -2 0 -10 -8 -17
-17z"/>
<path d="M2090 4973 c1 -12 39 -79 40 -70 0 12 -28 77 -34 77 -4 0 -6 -3 -6
-7z"/>
<path d="M2444 4615 c3 -70 11 -124 21 -149 9 -21 14 -49 11 -61 -4 -17 6 -36
42 -78 26 -31 51 -56 56 -56 5 -1 4 5 -1 12 -20 25 -44 114 -50 187 l-6 75
-15 -35 -15 -35 -8 30 c-5 17 -12 64 -15 105 -11 124 -25 127 -20 5z"/>
<path d="M2951 4121 c16 -71 56 -168 93 -222 19 -28 32 -57 30 -63 -2 -6 24
-27 58 -46 86 -48 87 -48 51 -7 -41 47 -61 85 -89 172 -23 69 -23 69 -24 28 0
-23 -4 -45 -10 -48 -10 -6 -43 56 -80 150 -29 75 -41 90 -29 36z"/>
<path d="M3130 4103 c0 -39 114 -346 146 -392 2 -2 32 -13 67 -26 l65 -22 -35
45 c-43 57 -62 94 -83 162 l-17 55 4 -85 c4 -79 3 -84 -12 -65 -8 11 -25 49
-36 85 -46 151 -99 280 -99 243z"/>
<path d="M5608 4978 c-14 -22 -38 -85 -38 -97 1 -3 15 20 31 53 30 58 35 87 7
44z"/>
<path d="M5401 4855 c-12 -60 -37 -157 -47 -185 -4 -11 -9 -7 -17 13 -11 26
-12 23 -13 -35 -1 -41 -10 -87 -28 -133 l-26 -70 26 30 c70 84 88 109 72 102
-29 -10 -29 8 -2 67 14 31 32 95 41 142 17 102 13 157 -6 69z"/>
<path d="M4512 4000 c-23 -63 -42 -119 -42 -123 0 -21 -43 -106 -52 -101 -9 6
-4 84 9 128 3 12 1 16 -6 12 -6 -4 -11 -15 -11 -24 0 -32 -61 -147 -98 -184
-20 -21 -34 -38 -32 -38 3 0 34 10 70 23 l64 22 44 90 c52 107 104 258 100
288 -2 14 -20 -22 -46 -93z"/>
<path d="M6325 7138 c-38 -11 -74 -23 -78 -28 -9 -8 39 -90 52 -90 4 0 33 32
65 70 31 39 51 70 44 69 -7 0 -44 -10 -83 -21z"/>
<path d="M6555 6813 c-27 -14 -52 -27 -54 -29 -10 -9 33 -83 55 -95 21 -11 30
-10 59 4 28 14 35 22 35 46 0 30 -28 101 -39 101 -3 -1 -28 -13 -56 -27z"/>
<path d="M1584 7530 c-50 -20 -69 -92 -39 -149 19 -39 90 -98 132 -112 43 -14
78 -5 109 28 60 65 0 178 -121 229 -39 16 -51 16 -81 4z"/>
<path d="M6731 5721 c1 -20 4 -46 7 -58 l7 -22 75 30 c41 17 78 34 83 38 4 4
-33 17 -83 28 l-90 20 1 -36z"/>
<path d="M1613 3613 l-83 -36 38 -42 c20 -23 40 -40 44 -38 10 5 91 144 86
148 -2 2 -40 -13 -85 -32z"/>
<path d="M1911 3373 c-23 -27 -41 -50 -41 -53 1 -13 76 -60 95 -60 28 0 65 40
65 71 0 22 -54 89 -72 89 -4 0 -25 -21 -47 -47z"/>
<path d="M2705 2840 c-31 -39 -55 -73 -53 -75 7 -7 81 -35 93 -35 8 0 14 28
19 86 3 48 5 89 3 91 -3 2 -30 -28 -62 -67z"/>
<path d="M3086 2793 c-3 -10 -17 -67 -31 -128 -14 -60 -28 -118 -31 -127 -4
-13 6 -19 50 -29 49 -11 58 -10 87 7 61 36 97 156 69 225 -22 52 -132 91 -144
52z"/>
<path d="M3521 2638 c-39 -91 -36 -98 37 -98 37 0 43 3 38 18 -2 9 -10 44 -16
77 -7 33 -15 65 -19 72 -3 6 -21 -25 -40 -69z"/>
<path d="M4020 2719 c0 -25 21 -256 25 -275 4 -19 9 -20 55 -14 88 11 129 79
110 182 -18 93 -46 118 -132 118 -35 0 -58 -4 -58 -11z"/>
</g>
</svg>
